<?xml version="1.0" encoding="UTF-8"?>
<!-- Created with Inkscape (http://www.inkscape.org/) -->
<svg width="210mm" height="297mm" version="1.1" viewBox="0 0 210 297" xmlns="http://www.w3.org/2000/svg">
 <defs>
  <clipPath id="clipPath41">
   <path d="m0 500h500v-500h-500z"/>
  </clipPath>
 </defs>
 <g transform="matrix(.35278 0 0 -.35278 19.129 223.68)">
  <path d="m0 0h500v500h-500z" fill="#fff"/>
  <g clip-path="url(#clipPath41)">
   <g transform="translate(387.78 131.02)">
    <path d="m0 0c0.971 3.485 1.888 6.779 2.805 10.072-0.066 0.032-0.13 0.063-0.196 0.095-1.854-2.657-3.708-5.314-5.625-8.06 1.04-0.726 1.943-1.357 3.016-2.107m6.66 15.357c-1.517-5.443-3.03-10.87-4.57-16.396 0.697-0.288 1.316-0.544 2.012-0.831 0.127 0.377 0.239 0.648 0.309 0.931 1.129 4.531 2.193 9.08 3.413 13.586 0.345 1.272 0.145 2.06-1.164 2.71m-12.043-55.741c0.931 3.744 1.822 7.333 2.741 11.029-1.023 0.208-1.936 0.393-2.972 0.604-1.016-3.639-2.008-7.195-3.036-10.882 1.096-0.252 2.085-0.478 3.267-0.751m34.49 14.644c1.147-3.82 2.272-7.568 3.436-11.448 1.171 0.46 2.235 0.879 3.423 1.345-1.258 3.869-2.477 7.619-3.735 11.487-1.122-0.498-2.09-0.927-3.124-1.384m-4.971 26.292c-1.851 5.684-3.668 11.266-5.481 16.837-1.814-1.289-1.854-2.768-1.159-4.594 0.828-2.174 1.364-4.459 2.038-6.691 0.684-2.27 1.382-4.535 2.126-6.975 0.878 0.505 1.645 0.945 2.476 1.423m-9.266 13.188c-0.179 0.061-0.356 0.121-0.535 0.182-0.167-0.453-0.497-0.914-0.478-1.359 0.209-4.74 0.471-9.477 0.727-14.215 0.022-0.41 0.107-0.816 0.189-1.41 1.666 0.435 3.172 0.829 4.764 1.244-1.6 5.335-3.134 10.447-4.667 15.558m7.195 1.483c-0.08-0.054-0.16-0.107-0.24-0.16 1.402-4.308 2.804-8.616 4.351-13.37 1.996 2.341 3.738 4.383 5.584 6.548-3.414 2.458-6.554 4.72-9.695 6.982m-24.155-42.355c1.92 7.724 3.809 15.32 5.71 22.97-0.763 0.299-1.389 0.544-2.162 0.847-2.166-7.787-4.298-15.447-6.456-23.201 1.002-0.212 1.838-0.389 2.908-0.616m33.603 5.002c-2.24 6.882-4.433 13.62-6.649 20.43-0.939-0.525-1.721-0.962-2.548-1.423 2.046-6.81 4.066-13.533 6.125-20.385 1.04 0.467 1.972 0.884 3.072 1.378m-21.186 35.471c-1.319-5.316-2.623-10.566-3.985-16.054 2.295-0.207 4.354-0.393 6.512-0.588-0.297 5.708-0.578 11.08-0.86 16.489-0.635 0.058-1.098 0.101-1.667 0.153m7.057 8.916c-0.096 0.494-0.178 1.182-0.364 1.843-0.833 2.943-4.726 4.417-6.994 2.645-1.952-1.525-2.955-3.569-3.075-6.025-0.093-1.876 1.371-4.161 3.096-4.876 1.954-0.811 3.642-0.212 5.116 1.129 1.487 1.354 2.087 3.123 2.221 5.284m-4.489 22.33v-14.724c2.298-0.64 2.297-0.64 3.516 1.066 0.151 0.211 0.308 0.417 0.46 0.627 2.284 3.143 4.568 6.286 6.963 9.581-3.524 1.893-7.027 3.332-10.939 3.45m21.825-21.322c-4.388-0.578-8.624-1.119-12.854-1.71-0.587-0.081-1.645-0.479-1.628-0.601 0.136-0.905 0.47-1.784 0.789-2.654 0.063-0.168 0.332-0.261 0.508-0.387 1.262-0.91 2.524-1.823 3.788-2.73 2.338-1.677 4.679-3.352 7.122-5.101 2.01 4.227 2.77 8.48 2.275 13.183m-39.043-19.913c0.137 0.254 0.207 0.414 0.303 0.554 2.555 3.742 5.131 7.471 7.658 11.233 0.548 0.816 0.973 1.727 1.359 2.635 0.357 0.838 0.173 1.301-0.92 1.146-2.475-0.355-4.965-0.608-7.445-0.928-2.643-0.339-5.28-0.705-8.028-1.073 0.946-5.275 3.178-9.713 7.073-13.567m-15.514-83.187c1.412 0.124 2.567 0.23 3.724 0.324 0.797 0.065 1.136 0.463 1.335 1.273 2.554 10.414 5.157 20.816 7.746 31.221 0.36 1.45 0.716 2.9 1.091 4.423-1.211 0.255-2.244 0.472-3.337 0.702-3.53-12.683-7.016-25.211-10.559-37.943m64.014 3.875c1.609 0.406 3.008 0.76 4.473 1.13-4.017 12.351-7.981 24.537-11.967 36.793-1.234-0.492-2.304-0.92-3.471-1.386 3.662-12.201 7.297-24.313 10.965-36.537m-23.985 99.235c4.573 0.581 9.395 1.194 14.314 1.818-1.273 6.184-4.207 11.109-9.159 14.93-2.885-3.965-5.672-7.797-8.205-11.281 1.061-1.902 1.987-3.561 3.05-5.467m0.012-27.31c-1.375-0.343-2.611-0.847-3.872-0.916-1.531-0.084-1.573-0.865-1.495-2.031 0.274-4.137 0.495-8.278 0.725-12.417 0.139-2.527 0.257-5.054 0.401-7.871 3.539 0.944 6.891 1.837 10.38 2.768-2.091 6.972-4.108 13.695-6.139 20.467m-31.819 22.834c4.708 0.589 9.233 1.258 13.783 1.674 1.909 0.174 2.696 0.757 3.046 2.762 0.271 1.565 0.174 2.475-1.199 3.185-0.114 0.059-0.202 0.163-0.304 0.243-3.581 2.772-7.163 5.543-10.836 8.385-3.419-4.905-4.909-10.207-4.49-16.249m5.629 17.741c4.304-3.333 8.487-6.571 12.488-9.67 1.603 1.055 3.027 1.991 4.399 2.894v14.899c-6.868-0.344-12.32-3.07-16.887-8.123m1.642-36.294c-5.219-6.99-10.38-13.9-15.595-20.885 4.182-2.382 8.265-4.165 12.71-5.303 0.185 0.645 0.331 1.138 0.469 1.634 1.802 6.456 3.601 12.912 5.405 19.369 0.717 2.569 0.72 2.568-1.518 4.13-0.423 0.296-0.839 0.602-1.471 1.055m10.131-5.178c-1.852-7.449-3.701-14.888-5.587-22.474 4.729-0.644 9.279-0.658 13.918 0.098-0.389 7.391-0.769 14.614-1.146 21.775-2.485 0.208-4.751 0.398-7.185 0.601m-8.897-35.813c11.481-1.833 22.552-0.768 33.49 2.802-1.169 3.885-2.285 7.597-3.429 11.399-8.928-3.293-18.013-4.147-27.325-3.156-0.93-3.754-1.819-7.347-2.736-11.045m36.894 47.537c-2.254-2.351-4.362-4.499-6.389-6.721-0.277-0.302-0.324-1.025-0.185-1.462 1.601-5.066 3.257-10.115 4.901-15.168 0.475-1.46 0.959-2.918 1.48-4.499 7.066 3.858 12.962 8.819 17.893 15.117-6.021 4.332-11.972 8.613-17.7 12.733m3.26 16.756c0.436-5.068-0.315-9.718-2.37-14.123-0.392-0.839 0.139-1.072 0.622-1.419 4.178-3.008 8.355-6.016 12.535-9.02 1.567-1.125 3.143-2.24 4.806-3.425 6.644 9.458 10.229 19.73 10.281 31.323-8.726-1.125-17.239-2.223-25.874-3.336m-24.938 53.479c0.161-10.104 0.318-20.032 0.476-30.049 4.565-0.359 8.788-1.443 12.556-4.062 5.888 8.091 11.681 16.05 17.515 24.065-9.133 6.665-19.31 9.654-30.547 10.046m-17.878-75.577c-5.325 6.351-5.325 6.351-8.009 15.195-9.886-1.258-19.796-2.52-29.824-3.796 2.972-14.015 10.299-24.772 22.048-32.506 5.333 7.132 10.534 14.086 15.785 21.107m49.902 64.374c-5.831-8.01-11.617-15.959-17.394-23.894 6.123-5.641 6.414-6.116 10.163-16.526 8.606 1.111 17.233 2.224 25.835 3.334 0.185 10.489-5.019 26.51-18.604 37.086m-58.019-47.324c-0.447 6.583 1.141 12.521 4.948 17.958-8.031 6.221-16.008 12.4-24.082 18.655-9.041-12.115-12.861-25.413-10.894-40.436 10.108 1.287 20.029 2.55 30.028 3.823m24.629 28.479c-0.162 10.081-0.322 20.002-0.482 29.902-12.597 1.284-35.921-10.1-41.949-20.429 7.938-6.149 15.887-12.306 23.901-18.514 4.949 5.599 11.068 8.602 18.53 9.041m-62.192-52.64c0-0.141-0.029-0.239 5e-3 -0.308 3.989-8.129 9.554-15.002 16.573-20.702 0.317-0.258 0.873-0.338 1.308-0.316 4.577 0.226 9.15 0.529 13.727 0.725 2.066 0.088 2.511-0.409 2.524-2.492 4e-3 -0.816-0.067-1.647-0.228-2.447-0.339-1.689-0.76-3.362-1.19-5.228 2.59-0.895 5.17-1.787 7.845-2.711 1.049 3.77 2.03 7.295 3.038 10.921-0.709 0.224-1.317 0.419-1.927 0.608-25.408 7.854-40.741 32.901-36.171 59.088 4.04 23.156 22.886 42.252 46.009 46.604 1.971 0.371 3.958 0.666 5.982 1.003-0.103 0.127-0.141 0.224-0.2 0.24-3.977 1.107-6.705 3.663-8.408 7.346-0.387 0.836-0.899 0.607-1.476 0.464-16.871-4.202-30.634-13.116-41.054-27.092-0.3-0.401-0.568-0.825-0.82-1.194 1.583 0 3.077 0.01 4.57-3e-3 1.462-0.014 2.038-0.616 1.997-2.082-0.021-0.735-0.078-1.469-0.124-2.202-0.289-4.615-1.533-8.848-4.85-12.268-1.327-1.368-2.848-2.483-4.759-2.711-2.024-0.241-4.079-0.223-6.281-0.324-2.476-8.594-3.267-17.529-1.873-26.741 0.603 0.093 1.07 0.139 1.524 0.24 2.32 0.514 4.635 1.06 6.959 1.562 1.545 0.334 2.335-0.123 2.647-1.663 0.203-1.007 0.235-2.06 0.233-3.093-0.011-5.764-0.336-11.425-5.58-15.224m66.414 84.925c5.529-0.305 10.819-1.529 15.956-3.43 24.254-8.977 38.129-33.271 33.381-58.647-3.243-17.331-12.953-30.288-27.994-39.336-0.656-0.395-1.32-0.775-1.999-1.172 1.267-3.894 2.495-7.662 3.735-11.473 0.276 0.075 0.448 0.096 0.597 0.167 5.813 2.77 11.168 6.247 16.02 10.478 0.299 0.261 0.38 0.969 0.305 1.427-0.273 1.656-0.815 3.28-0.961 4.942-0.249 2.837 0.284 3.582 3.053 4.415 2.812 0.846 5.683 1.496 8.505 2.316 0.601 0.175 1.274 0.596 1.614 1.105 4.465 6.683 7.583 13.958 9.425 21.785 0.189 0.804 0.046 1.312-0.541 1.93-3.174 3.347-4.343 7.504-4.518 11.982-0.068 1.768 0.493 2.337 2.257 2.809 1.408 0.377 2.83 0.704 4.218 1.045 0.046 8.846-5.061 24.212-10.012 30.16-3.137-1.233-6.27-0.838-9.31 0.396-5.662 2.299-7.563 7.381-9.079 12.665-0.296 1.033 0.366 1.815 1.463 2.099 0.689 0.178 1.373 0.376 2.232 0.612-0.428 0.343-0.671 0.591-0.96 0.761-3.76 2.208-7.426 4.603-11.315 6.556-5.361 2.693-11.138 4.243-17.045 5.274-0.61 0.106-1.197 0.292-1.539-0.637-1.367-3.715-3.599-6.692-7.488-8.229m63.927-67.576c-1.742-7.68-4.664-14.713-8.846-21.466 0.547 0.078 0.9 0.112 1.247 0.18 1.865 0.365 3.723 0.765 5.593 1.1 1.242 0.222 2.036-0.304 2.296-1.531 0.938-4.445 1.272-8.925 0.276-13.394-1.077-4.834-3.756-8.442-8.756-9.593-5.272-1.213-9.629 0.57-12.903 4.894-0.52 0.685-0.958 1.432-1.513 2.268-0.757-0.62-1.47-1.216-2.196-1.793-4.285-3.404-8.847-6.386-13.811-8.691-1.304-0.605-1.397-1.183-0.984-2.435 3.859-11.706 7.653-23.432 11.462-35.154 0.654-2.011 0.235-2.73-1.847-3.245-1.427-0.352-2.862-0.677-4.275-1.08-1.577-0.449-2.081-0.225-2.572 1.391-1.047 3.433-2.071 6.874-3.102 10.312-2.522 8.409-5.044 16.819-7.567 25.228-0.099 0.327-0.217 0.648-0.372 1.11-0.973-0.276-1.911-0.542-2.848-0.81-10.131-2.897-20.416-3.556-30.837-2.078-0.903 0.128-1.09-0.195-1.275-0.948-2.913-11.798-5.854-23.589-8.788-35.382-0.526-2.114-0.527-2.095-2.733-2.274-1.379-0.112-2.755-0.269-4.125-0.45-2.089-0.278-3.053 0.784-2.487 2.82 3.39 12.209 6.791 24.416 10.187 36.624 0.115 0.413 0.22 0.829 0.357 1.348-2.704 0.938-5.372 1.864-8.106 2.813-0.37-0.658-0.724-1.294-1.084-1.927-2.403-4.218-6.144-5.88-10.811-5.278-2.193 0.283-4.408 0.928-6.431 1.822-2.35 1.038-4.022 2.995-5.045 5.382-1.193 2.788-2.28 5.602-2.02 8.756 0.103 1.261 0.647 1.756 1.833 1.849 1.75 0.136 3.494 0.345 5.541 0.554-6.803 5.968-12.106 12.729-15.937 20.519-1.623-0.139-3.163-0.433-4.688-0.369-3.892 0.16-7.084 1.914-9.533 4.877-2.265 2.743-3.839 5.88-4.165 9.483-0.212 2.357 0.209 2.78 2.528 3.188 2.98 0.523 5.964 1.033 8.944 1.554 0.293 0.051 0.578 0.141 0.986 0.242-1.267 9.575-0.671 18.995 2.065 28.122-1.21 0.971-2.393 1.778-3.405 2.76-3.419 3.317-4.506 7.47-4.098 12.094 0.121 1.379 0.799 2.06 2.288 2.207 3.183 0.316 6.372 0.724 9.563 0.754 2.694 0.026 4.44 0.83 6.136 3.163 10.484 14.416 24.581 23.595 41.815 28.016 0.411 0.105 0.82 0.218 1.207 0.32-0.272 1.435-0.643 2.771-0.751 4.128-0.139 1.728 0.615 2.6 2.33 2.822 4.372 0.569 8.744 1.151 13.129 1.591 3.692 0.371 7.4 0.609 11.106 0.789 1.603 0.078 2.343-0.699 2.274-2.304-0.086-1.971-0.366-3.935-0.568-5.975 2.332-0.521 4.743-0.99 7.117-1.601 8.957-2.302 17.114-6.273 24.44-11.92 0.734-0.566 1.356-0.659 2.243-0.421 4.342 1.164 8.702 2.26 13.065 3.344 0.834 0.207 1.708 0.271 2.566 0.37 1.961 0.227 2.733-0.392 2.837-2.396 0.173-3.351-0.177-6.647-1.131-9.879-0.83-2.814-2.23-5.237-4.673-7.01 3.038-4.758 5.438-9.678 7.172-14.919 1.721-5.197 2.715-10.534 3.138-16.193 2.311 0.418 4.544 0.809 6.771 1.227 1.955 0.368 3.898 0.811 5.86 1.132 1.791 0.293 2.127 0.036 2.533-1.709 0.77-3.323 1.014-6.72 0.475-10.06-1.105-6.858-8.667-11.405-15.346-9.417-0.532 0.158-1.058 0.332-1.751 0.549" fill="#8f5e3b"/>
   </g>
   <g transform="translate(187.3 97.409)">
    <path d="m0 0c0.193 0.059 0.387 0.116 0.581 0.174 0.195 1.829 0.478 3.655 0.541 5.489 0.025 0.718-0.312 1.541-0.73 2.148-0.272 0.395-1.011 0.691-1.496 0.636-0.292-0.032-0.732-0.84-0.702-1.27 0.102-1.452 0.29-2.914 0.629-4.328 0.237-0.987 0.774-1.902 1.177-2.849m-48.615 11.766c-0.734 2.49-1.43 4.88-2.151 7.262-0.097 0.322-0.261 0.678-0.506 0.883-0.262 0.221-0.663 0.381-0.993 0.364-0.139-6e-3 -0.39-0.553-0.354-0.823 0.354-2.67 0.757-5.333 1.159-8.08 1.041 0.145 1.883 0.261 2.845 0.394m-95.125-24.806c-1e-3 9e-3 -3e-3 0.019-4e-3 0.027-1.459-0.069-2.928-0.068-4.373-0.254-0.398-0.05-1.028-0.671-1.012-1.004 0.022-0.454 0.478-1.151 0.892-1.279 2.923-0.905 5.877-0.635 8.797 0.078 0.319 0.078 0.746 0.576 0.748 0.882 2e-3 0.397-0.274 0.954-0.606 1.156-0.446 0.274-1.055 0.346-1.602 0.378-0.944 0.056-1.893 0.016-2.84 0.016m139.72 21.879c-0.114 0.114-0.228 0.228-0.341 0.343-0.59-0.612-1.349-1.131-1.738-1.85-1.019-1.884-1.234-3.976-0.88-6.058 0.449-2.645 3.308-4.09 5.593-2.945-2.205 3.021-2.712 5.041-2.634 10.51m-84.495-5.529c0.138-1.652 0.219-3.2 0.406-4.735 0.267-2.183 1.441-3.82 3.418-4.723 1.482-0.678 3.045-1.298 4.636-1.595 5.229-0.976 10.503-0.784 15.762-0.196 2.159 0.242 4.149 0.98 4.834 3.3 0.813 2.757 1.421 5.574 2.169 8.566-10.445-5.145-20.691-4.016-31.225-0.617m-54.628-6.918c17.622 0.537 35.111 1.07 52.671 1.605-0.096 2.113-0.159 4.093-0.308 6.066-0.021 0.283-0.409 0.624-0.709 0.783-1.641 0.872-3.25 1.85-4.98 2.495-1.962 0.73-4.026 1.555-6.07 1.625-6.865 0.233-13.737 0.312-20.56-0.927-5.402-0.98-10.622-2.339-15.323-5.319-2.346-1.487-3.862-3.516-4.721-6.328m87.078 2.613c0.572 0.037 0.868 0.053 1.163 0.076 4.87 0.395 9.733 0.961 14.61 1.147 8.43 0.32 16.87 0.404 25.305 0.588 0.907 0.02 1.831 0.156 2.717 0.027 0.422-0.062 0.773-0.617 1.157-0.948-0.37-0.402-0.672-0.961-1.13-1.162-0.477-0.208-1.105-0.07-1.667-0.083-13.795-0.29-27.601-0.334-41.344-1.816-0.927-0.1-1.448-0.404-1.715-1.368-0.972-3.501-3.404-5.284-6.956-5.635-1.592-0.157-3.184-0.325-4.78-0.418-4.202-0.247-8.404-0.171-12.523 0.75-3.073 0.687-6.035 1.769-7.847 4.608-0.518 0.812-1.028 1.07-1.955 1.034-7.867-0.309-15.737-0.594-23.607-0.838-6.097-0.19-12.197-0.288-18.295-0.469-3.415-0.102-6.828-0.273-10.24-0.46-0.343-0.018-0.89-0.299-0.965-0.563-0.371-1.318-0.614-2.67-0.968-4.314 1.512 0 2.845 0.038 4.176-7e-3 3.6-0.124 4.714-1.372 4.461-4.925-5e-3 -0.071 0.06-0.147 0.171-0.401 5.67-0.072 11.42-0.075 17.163-0.254 2.241-0.069 3.943 0.669 5.332 2.343 0.275 0.332 0.609 0.615 0.903 0.933 1.931 2.08 4.087 3.852 6.699 5.03 5.431 2.448 8.841 0.935 10.507-4.748 0.255-0.869 0.611-1.169 1.511-1.146 4.629 0.117 9.26 0.253 13.889 0.233 7.052-0.031 14.104-0.198 21.156-0.258 0.53-5e-3 1.181 0.255 1.572 0.614 1.339 1.226 2.525 2.622 3.884 3.822 2.007 1.772 4.233 3.28 7.06 3.087 3.489-0.238 6.093-2.053 7.859-5.039 0.465-0.786 1.032-1.082 1.94-1.215 7.457-1.09 14.937-0.783 22.411-0.387 2.666 0.14 5.364 0.416 7.958 1.015 4.18 0.965 6.181 3.822 6.096 8.038-1.062-0.081-2.15-0.347-3.184-0.209-4.132 0.551-6.461 3.91-5.792 8.304 0.242 1.597 0.692 3.162 1.062 4.809-1.639 0.079-3.278 0.201-4.919 0.228-6.274 0.105-12.548 0.205-18.823 0.258-5.749 0.05-11.499 0.043-17.249 0.046-1.48 1e-3 -2.751-0.342-3.597-1.789-0.439-0.751-1.618-1.173-1.841-1.928-0.618-2.093-0.91-4.281-1.365-6.61m33.959-15.128c-5.425 0.432-10.852 0.819-16.267 1.347-0.674 0.065-1.369 0.785-1.889 1.353-0.751 0.821-1.228 1.915-2.038 2.658-3.019 2.767-6.536 2.567-9.835-0.502-1.361-1.265-2.66-2.601-3.945-3.946-0.843-0.882-1.84-1.229-3.03-1.183-3.113 0.123-6.227 0.319-9.341 0.324-8.654 0.013-17.309-0.06-25.963-0.089-2.533-9e-3 -2.693 0.127-3.434 2.58-1.332 4.41-3.341 5.388-7.461 3.289-1.857-0.946-3.476-2.376-5.154-3.65-0.648-0.493-1.202-1.127-1.727-1.757-1.926-2.313-4.39-3.155-7.36-3.051-6.486 0.229-12.976 0.348-19.465 0.483-2.435 0.051-4.873-0.023-7.307 0.055-0.935 0.03-1.895 0.226-2.786 0.519-1.755 0.576-2.548 1.827-2.409 3.537 0.151 1.841 1.102 2.989 2.998 3.168 1.066 0.101 1.173 0.652 1.397 1.445 0.834 2.943 1.64 5.902 2.669 8.78 0.792 2.214 2.442 3.83 4.406 5.138 5.315 3.542 11.288 5.142 17.51 6.017 2.182 0.307 4.384 0.479 6.558 0.827 0.977 0.155 1.922 0.89 2.858 0.847 4.444-0.204 8.914-0.356 13.305-1.003 2.145-0.316 4.197-1.555 6.185-2.584 4.476-2.314 9.007-4.556 14.046-5.182 5.752-0.714 11.588-1.211 17.177 0.931 2.118 0.811 4.048 2.121 6.041 3.245 2.278 1.284 2.863 3.263 2.394 5.751-0.399 2.118-0.671 4.263-0.91 6.406-0.138 1.236 0.16 2.325 1.552 2.792 1.481 0.496 2.878 0.238 3.752-0.943 0.528-0.714 0.942-1.559 1.216-2.408 0.665-2.055 1.242-4.14 1.804-6.228 0.193-0.718 0.45-1.022 1.298-1.034 10.382-0.148 20.764-0.336 31.145-0.558 2.63-0.057 5.255-0.294 7.885-0.391 0.538-0.019 1.095 0.348 1.628 0.312 1.665-0.113 3.349-0.212 4.978-0.549 1.644-0.341 3.075-2.404 2.931-4.446-0.236-3.357-0.694-6.699-1.141-10.036-0.178-1.323-0.555-2.621-0.884-3.919-0.814-3.204-2.789-5.443-5.991-6.207-2.841-0.679-5.77-1.107-8.684-1.33-2.88-0.222-5.79-0.049-8.686-0.049z" fill="#8f5e3b"/>
   </g>
   <g transform="translate(330.78 83.034)">
    <path d="m0 0c-2.24-1.862-4.344-3.715-6.562-5.418-1.296-0.994-2.718-1.863-4.182-2.59-5.721-2.838-11.27-1.914-16.263 2.61-2.762 2.502-4.638 5.559-5.675 9.198-1.719-2.02-3.267-4.099-5.086-5.906-2.138-2.128-4.356-4.24-6.813-5.969-5.004-3.52-10.087-3.326-15.068 0.241-3.173 2.272-5.431 5.295-7.093 8.792-0.167 0.351-0.337 0.699-0.51 1.047-0.014 0.028-0.058 0.042 0.036-0.022-1.783-2.541-3.468-5.153-5.372-7.593-2.062-2.643-4.59-4.826-7.548-6.456-3.103-1.71-6.182-1.73-9.212 0.208-3.309 2.116-5.865 4.831-6.938 9.008-0.48-0.552-0.827-0.948-1.169-1.347-5.983-6.974-13.308-11.63-22.516-13.031-2.861-0.435-5.609-0.111-8.181 1.278-0.451 0.243-0.992 0.51-1.221 0.917-0.226 0.401-0.294 1.101-0.082 1.469 0.151 0.259 0.912 0.315 1.347 0.219 0.482-0.105 0.889-0.513 1.352-0.745 2.345-1.173 4.777-1.248 7.329-0.764 9.102 1.725 16.074 6.711 21.664 13.895 0.627 0.807 1.064 2.144 2.431 1.746 1.262-0.367 0.961-1.693 1.18-2.658 1.027-4.545 3.952-7.385 8.17-8.994 1.608-0.614 3.163-0.042 4.599 0.745 4.294 2.353 7.417 5.908 10.005 9.968 0.881 1.381 1.585 2.876 2.346 4.331 0.432 0.828 0.644 1.924 1.882 1.838 1.215-0.085 1.363-1.19 1.665-2.065 1.122-3.251 2.886-6.101 5.385-8.454 2.573-2.421 5.525-4.006 9.214-3.722 2.065 0.159 3.807 1.105 5.439 2.268 4.388 3.125 7.861 7.138 11.017 11.457 0.608 0.831 1.015 2.114 2.391 1.845 1.376-0.27 1.227-1.606 1.513-2.604 1.795-6.276 5.607-10.553 12.13-12.006 2.584-0.576 4.963 0.39 7.2 1.587 3.857 2.065 7.084 4.938 10.07 8.099 0.297 0.314 0.573 0.653 0.896 0.939 0.98 0.87 2.024 0.539 2.318-0.741 0.086-0.375-4e-3 -0.796 0.109-1.157 0.421-1.339 0.652-2.817 1.394-3.958 1.67-2.566 4.147-4.256 6.976-5.398 1.978-0.798 3.997-0.809 5.929 0.095 1.482 0.694 2.847 1.637 4.331 2.323 0.464 0.215 1.373 0.18 1.68-0.131 0.584-0.594 0.186-1.274-0.456-1.73-6.132-4.351-10.945-4.703-17.15 0.15-2.359 1.846-4.266 4.06-4.901 7.186" fill="#8f5e3b"/>
   </g>
   <g transform="translate(333.71 57.134)">
    <path d="m0 0c-2.657-2.897-5.403-5.397-8.698-7.218-5.022-2.773-9.974-2.449-14.759 0.54-2.712 1.695-4.316 4.311-5.397 7.409-0.347-0.291-0.629-0.512-0.896-0.752-5.342-4.789-11.138-8.804-18.241-10.525-3.777-0.915-7.595-1.285-11.434-0.355-1.895 0.459-3.547 1.375-4.825 2.878-0.53 0.623-0.968 1.372-0.179 2.048 0.748 0.643 1.339 0.103 1.856-0.498 1.515-1.761 3.554-2.413 5.766-2.573 5.32-0.385 10.312 0.822 15.025 3.254 4.303 2.222 8.083 5.163 11.592 8.48 1.675 1.583 2.688 1.296 3.428-0.92 2.246-6.727 8.583-10.169 14.775-7.978 2.779 0.983 5.11 2.719 7.248 4.702 1.235 1.148 2.37 2.403 3.559 3.599 1.31 1.317 2.34 1.138 3.084-0.523 1.631-3.637 5.052-5.118 8.775-3.673 1.523 0.59 2.921 1.501 4.431 2.131 0.437 0.182 1.071-0.109 1.614-0.184-0.078-0.507 0.027-1.288-0.26-1.478-3.02-1.993-6.143-3.858-9.989-3.135-2.81 0.527-4.995 2.067-6.475 4.771" fill="#8f5e3b"/>
   </g>
   <g transform="translate(234.91 61.452)">
    <path d="m0 0c-2.396-2.029-5.209-3.872-8.44-4.978-2.384-0.815-4.817-1.552-7.357-0.914-1.021 0.258-2.029 0.766-2.888 1.377-0.374 0.267-0.357 1.081-0.519 1.647 0.578 0.063 1.339 0.395 1.702 0.146 2.074-1.424 4.256-1.24 6.485-0.661 3.098 0.805 5.885 2.253 8.402 4.224 0.613 0.479 1.209 0.982 1.821 1.463 1.53 1.203 2.457 0.985 3.142-0.829 1.304-3.454 3.919-5.284 7.395-6.01 3.497-0.733 6.806-0.026 9.892 1.665 3.213 1.761 6 4.084 8.463 6.794 0.494 0.544 0.959 1.119 1.488 1.628 0.938 0.9 1.934 0.677 2.47-0.515 2.888-6.426 8.181-8.808 14.942-6.739 3.904 1.194 7.225 3.268 9.855 6.422 0.524 0.628 1.071 1.262 1.712 1.76 0.807 0.628 1.884 0.414 2.229-0.39 0.4-0.931-0.021-1.385-0.959-1.702-0.51-0.173-0.898-0.768-1.294-1.215-4.275-4.829-9.525-7.666-16.063-7.804-5.054-0.106-8.708 2.365-11.464 6.405-0.218 0.321-0.394 0.667-0.739 1.254-0.534-0.612-0.968-1.187-1.479-1.683-3.534-3.428-7.255-6.639-12.182-7.83-4.393-1.063-8.758-0.912-12.491 2.003-1.554 1.212-2.717 2.924-4.123 4.482" fill="#8f5e3b"/>
   </g>
   <g transform="translate(133.65 77.533)">
    <path d="m0 0c0.108 2.576 1.495 5.554 4.247 7.817 0.744 0.614 1.681 1.121 2.611 1.356 3.283 0.832 5.784-1.484 5.668-5.319-0.109-3.583-1.545-6.632-4.344-8.922-1.65-1.35-3.553-2.118-5.64-1.066-2.075 1.046-2.585 2.992-2.542 6.134" fill="#8f5e3b"/>
   </g>
   <g transform="translate(76.276 75.621)">
    <path d="m0 0c0.26 3.208 1.7 6.627 4.704 9.281 1.435 1.268 3.157 2.021 5.008 1.17 1.776-0.816 2.218-2.623 2.2-4.393-0.041-4.134-1.626-7.65-4.696-10.432-1.379-1.249-3.052-1.993-4.878-1.184-2.029 0.9-2.354 2.814-2.338 5.558" fill="#8f5e3b"/>
   </g>
   <g transform="translate(221.03 382.63)">
    <path d="m0 0c0.909 0 1.821 0.054 2.726-0.01 3.151-0.219 6.045 0.501 8.867 1.941 4.806 2.452 9.854 3.048 15.107 1.513 3.289-0.961 6.679-1.111 10.032-0.543 6.215 1.052 12.108-0.316 18.009-1.988 9.076-2.573 16.473-7.65 22.565-14.774 5.862-6.857 10.94-14.284 15.971-21.748 3.263-4.841 6.554-9.664 9.791-14.524 0.977-1.469 2.263-2.48 3.882-3.102 1.896-0.729 3.8-1.437 5.702-2.155 0.363-0.138 0.832-0.18 1.066-0.436 0.361-0.393 0.561-0.933 0.828-1.411-0.493-0.232-1.107-0.781-1.461-0.646-3.182 1.212-6.475 2.272-9.406 3.951-1.605 0.92-2.692 2.867-3.811 4.49-5.406 7.832-10.684 15.752-16.124 23.559-3.613 5.184-7.52 10.137-12.056 14.586-5.247 5.145-11.538 8.308-18.517 10.269-4.169 1.172-8.354 2.298-12.752 2.006-2.069-0.138-4.131-0.378-6.201-0.514-3.049-0.201-6.045 0.157-8.986 0.986-4.021 1.134-7.991 0.732-11.61-1.161-4.073-2.131-8.301-2.727-12.788-2.578-4.718 0.157-9.42-0.042-14.062-1.101-3.849-0.879-7.377-2.462-10.678-4.569-5.471-3.496-9.706-8.296-13.849-13.201-5.149-6.096-9.847-12.512-13.934-19.363-1.862-3.121-4.076-5.67-7.61-7.082-2.915-1.165-5.095-3.352-6.263-6.407-0.117-0.308-0.849-0.677-1.106-0.569-0.433 0.183-0.953 0.702-0.997 1.124-0.055 0.536 0.237 1.172 0.538 1.669 1.748 2.885 4.078 5.216 7.228 6.468 2.611 1.039 4.35 2.839 5.744 5.173 4.466 7.485 9.564 14.518 15.232 21.143 3.834 4.48 7.781 8.809 12.667 12.218 5.464 3.812 11.503 5.92 18.089 6.504 2.711 0.24 5.441 0.267 8.162 0.39 2e-3 -0.036 4e-3 -0.072 5e-3 -0.108" fill="#8f5e3b"/>
   </g>
   <g transform="translate(332.36 319.92)">
    <path d="m0 0c-3.001 0.487-5.713 0.808-8.371 1.378-12.34 2.646-24.672 5.329-36.991 8.073-4.069 0.906-7.796 2.51-10.617 5.816-1.682 1.969-3.531 3.801-5.366 5.633-2.265 2.263-5.016 3.613-8.164 4.24-6.037 1.201-13.795-1.911-17.066-7.101-1.471-2.333-3.373-3.79-6.005-4.586-9.477-2.864-18.922-5.834-28.38-8.761-0.455-0.14-0.951-0.394-1.374-0.315-0.512 0.096-0.968 0.492-1.447 0.758 0.301 0.46 0.593 0.928 0.914 1.375 0.058 0.082 0.241 0.073 0.365 0.111 9.458 2.923 18.898 5.9 28.383 8.734 2.579 0.771 4.615 1.942 5.92 4.393 1.575 2.96 4.186 4.737 7.27 5.95 4.536 1.783 9.153 2.825 13.899 1.125 2.082-0.746 4.155-1.798 5.898-3.143 2.141-1.653 4.145-3.59 5.825-5.708 2.553-3.22 5.791-5.099 9.669-6.12 14.097-3.713 28.345-6.71 42.724-9.094 1.019-0.169 2.067-0.291 3.026-0.642 0.364-0.133 0.71-0.859 0.696-1.303-0.012-0.329-0.62-0.638-0.808-0.813" fill="#8f5e3b"/>
   </g>
   <g transform="translate(248.5 358.34)">
    <path d="m0 0c0.329 0.62 0.74 1.21 0.969 1.865 0.456 1.303 0.7 2.69 1.258 3.942 0.268 0.604 1.055 1.36 1.595 1.351 0.535-9e-3 1.188-0.816 1.542-1.418 0.328-0.556 0.329-1.304 0.755-2 0.296 1.634 0.569 3.273 0.899 4.9 0.143 0.713 0.282 1.475 0.648 2.078 0.238 0.394 0.887 0.748 1.343 0.739 0.386-9e-3 0.956-0.499 1.095-0.896 0.247-0.712 0.431-1.557 0.286-2.273-0.489-2.405-1.114-4.783-1.739-7.157-0.127-0.485-0.44-0.939-0.738-1.359-0.989-1.394-2.228-1.517-3.515-0.358-0.286 0.258-0.504 0.589-0.808 0.95-0.602-0.92-1.063-1.752-1.644-2.489-1.514-1.919-3.695-1.774-4.814 0.411-0.537 1.047-0.928 2.281-0.968 3.445-0.08 2.323 0.099 4.658 0.233 6.984 0.056 0.968 0.401 1.773 1.624 1.772 1.245-1e-3 1.724-0.741 1.708-1.814-0.024-1.595-0.202-3.187-0.26-4.782-0.045-1.264-9e-3 -2.531-9e-3 -3.796 0.18-0.032 0.36-0.063 0.54-0.095" fill="#f37d57"/>
   </g>
   <g transform="translate(190.95 352.19)">
    <path d="m0 0c1.915 0.779 3.714 1.479 5.476 2.262 0.265 0.117 0.421 0.603 0.52 0.949 0.353 1.247 0.654 2.509 0.989 3.761 0.089 0.332 0.221 0.654 0.348 0.976 0.387 0.978 1.179 1.442 2.152 1.276 1.007-0.172 1.011-1.124 0.925-1.884-0.29-2.574-0.596-5.15-1.025-7.702-0.263-1.569-0.717-3.113-1.174-4.64-0.244-0.817-0.839-1.684-1.745-1.332-0.592 0.23-1.181 1.131-1.287 1.808-0.202 1.296-0.059 2.646-0.059 4.105-1.51-0.608-3.108-1.219-4.668-1.912-0.258-0.115-0.446-0.578-0.506-0.909-0.14-0.763-0.044-1.595-0.308-2.3-0.193-0.513-0.809-1.21-1.232-1.208-0.527 4e-3 -1.332 0.541-1.511 1.031-0.346 0.948-0.492 2.033-0.448 3.049 0.14 3.192 0.402 6.379 0.631 9.567 0.018 0.251 0.13 0.5 0.219 0.743 0.279 0.754 0.814 1.108 1.617 0.943 0.807-0.165 1.104-0.697 1.095-1.509-0.026-2.284-9e-3 -4.569-9e-3 -7.074" fill="#f37d57"/>
   </g>
   <g transform="translate(206.54 354.01)">
    <path d="m0 0c0.087-0.061 0.174-0.121 0.261-0.182 0.175-0.525 0.267-1.099 0.543-1.565 0.463-0.781 1.211-0.978 1.8-0.224 1.629 2.08 2.534 4.409 1.873 7.098-0.099 0.398-0.505 0.984-0.803 1.006-0.411 0.03-1.074-0.288-1.248-0.643-0.877-1.797-1.63-3.654-2.426-5.49m7.767 3.305c-0.1-3.016-0.818-5.468-2.609-7.501-2.664-3.022-6.417-2.271-7.628 1.571-1.117 3.542-0.366 6.844 1.777 9.81 1.192 1.649 2.848 2.594 4.942 2.087 1.96-0.475 2.753-2.096 3.21-3.876 0.203-0.787 0.242-1.615 0.308-2.091" fill="#f37d57"/>
   </g>
   <g transform="translate(221.16 356.34)">
    <path d="m0 0c1.161-0.09 2.196-6e-3 3.114-0.297 0.673-0.213 1.455-0.807 1.714-1.429 0.359-0.866-0.341-1.689-1.175-1.86-2.304-0.474-4.635-0.871-6.975-1.092-1.039-0.099-1.651 0.788-1.568 1.827 0.12 1.499 0.319 3 0.615 4.474 0.535 2.663 1.159 5.309 1.76 7.959 0.329 1.449 1.316 2.194 2.66 2.047 1.011-0.11 1.71-1.1 1.5-2.613-0.363-2.603-0.905-5.18-1.375-7.767-0.069-0.377-0.162-0.75-0.27-1.249" fill="#f37d57"/>
   </g>
   <g transform="translate(236.96 363.93)">
    <path d="m0 0c0.783 1.585 1.449 2.979 2.159 4.351 0.407 0.788 0.977 1.682 1.957 1.21 0.537-0.259 1.079-1.187 1.064-1.8-0.094-3.874-0.339-7.746-0.552-11.617-0.019-0.337-0.066-0.772-0.279-0.977-0.479-0.461-1.117-1.162-1.602-1.099-0.494 0.065-1.196 0.897-1.256 1.453-0.171 1.574-0.06 3.18-0.06 4.878-0.164-0.024-0.313-0.029-0.452-0.069-2.499-0.724-3.523-0.273-3.979 2.27-0.261 1.457 0.042 3.038 0.248 4.541 0.052 0.38 0.738 0.972 1.083 0.94 0.475-0.045 1.169-0.512 1.296-0.938 0.276-0.925 0.252-1.94 0.373-3.143" fill="#f37d57"/>
   </g>
   <g transform="translate(281.89 367.78)">
    <path d="m0 0c-0.343-1.573-0.668-3.059-0.994-4.554 1.921-0.284 3.777 0.46 4.016 1.51 0.288 1.263-0.901 2.506-3.022 3.044m-1.31-8.138c-2.64 0.02-3.165 0.693-2.847 2.447 0.415 2.293 0.811 4.589 1.173 6.891 0.421 2.685 1.482 3.242 3.912 1.968 0.879-0.46 1.761-0.928 2.581-1.484 3.42-2.322 3.304-6.349-0.369-8.324-1.596-0.857-3.477-1.183-4.45-1.498" fill="#f37d57"/>
   </g>
   <g transform="translate(231.15 357.59)">
    <path d="m0 0c0.809-0.206 1.594-0.25 2.197-0.605 0.569-0.334 1.236-0.954 1.318-1.526 0.065-0.454-0.581-1.251-1.1-1.497-1.037-0.492-2.183-0.843-3.32-1.012-2.394-0.358-3.676 0.804-3.494 3.224 0.169 2.235 0.53 4.458 0.867 6.678 0.155 1.019 0.368 2.047 0.712 3.016 0.446 1.26 1.43 1.87 2.35 1.535 1.134-0.413 1.548-1.32 1.398-2.482-0.248-1.928-0.525-3.852-0.78-5.779-0.066-0.502-0.097-1.009-0.148-1.552" fill="#f37d57"/>
   </g>
   <g transform="translate(261.77 362.65)">
    <path d="m0 0c0.094-0.038 0.187-0.075 0.279-0.113 0-0.258-0.08-0.553 0.017-0.768 0.232-0.517 0.549-0.996 0.831-1.491 0.407 0.327 0.931 0.578 1.201 0.994 0.924 1.416 1.285 3.012 1.068 4.689-0.06 0.452-0.429 0.864-0.657 1.295-0.379-0.244-0.935-0.402-1.106-0.749-0.614-1.251-1.099-2.566-1.633-3.857m6.423 2.403c-0.04-2.037-0.51-3.935-1.761-5.593-1.117-1.481-2.642-1.998-4.364-1.56-1.576 0.402-2.137 1.799-2.399 3.252-0.367 2.037 0.116 3.943 1.063 5.754 1.139 2.177 3.027 3.299 4.873 2.877 1.646-0.375 2.636-2.182 2.588-4.73" fill="#f37d57"/>
   </g>
   <g transform="translate(273.97 369.02)">
    <path d="m0 0c-1.68-1.334-2.704-5.548-1.824-7.5 1.679 1.25 2.715 5.505 1.824 7.5m-4.954-5.647c0.603 2.096 1.114 4.225 1.858 6.27 0.27 0.741 0.999 1.43 1.69 1.879 1.433 0.933 2.936 0.386 3.599-1.189 1.4-3.321 1.054-6.489-0.901-9.497-0.14-0.216-0.306-0.42-0.483-0.608-0.909-0.963-2.009-1.612-3.342-1.275-1.291 0.325-1.713 1.479-1.946 2.668-0.108 0.548-0.159 1.107-0.235 1.662-0.08 0.029-0.16 0.06-0.24 0.09" fill="#f37d57"/>
   </g>
   <g transform="translate(402.74 210.28)">
    <path d="m0 0c3.889 1.537 6.121 4.515 7.488 8.229 0.342 0.929 0.929 0.744 1.539 0.637 5.907-1.031 11.684-2.581 17.045-5.273 3.889-1.953 7.555-4.349 11.315-6.557 0.289-0.17 0.532-0.418 0.96-0.761-0.859-0.236-1.543-0.433-2.232-0.612-1.096-0.284-1.759-1.065-1.463-2.099 1.516-5.284 3.417-10.366 9.079-12.665 3.04-1.234 6.173-1.628 9.31-0.396 4.951-5.947 10.058-21.314 10.012-30.159-1.388-0.342-2.81-0.668-4.218-1.045-1.764-0.473-2.325-1.042-2.257-2.81 0.175-4.477 1.344-8.635 4.518-11.981 0.587-0.618 0.73-1.127 0.541-1.931-1.842-7.827-4.96-15.101-9.425-21.785-0.34-0.509-1.013-0.93-1.614-1.105-2.822-0.82-5.693-1.469-8.505-2.316-2.769-0.833-3.302-1.578-3.053-4.415 0.147-1.662 0.689-3.286 0.961-4.941 0.075-0.458-6e-3 -1.166-0.305-1.428-4.852-4.231-10.207-7.708-16.02-10.478-0.149-0.071-0.321-0.091-0.597-0.167-1.24 3.811-2.468 7.579-3.735 11.473 0.679 0.397 1.343 0.777 1.999 1.172 15.041 9.049 24.751 22.006 27.994 39.336 4.748 25.376-9.127 49.671-33.381 58.647-5.137 1.902-10.427 3.125-15.956 3.43" fill="#f37d57"/>
   </g>
   <g transform="translate(336.32 125.36)">
    <path d="m0 0c5.244 3.799 5.569 9.46 5.58 15.225 2e-3 1.032-0.03 2.086-0.233 3.092-0.312 1.54-1.102 1.997-2.647 1.663-2.324-0.501-4.638-1.047-6.959-1.562-0.454-0.101-0.921-0.147-1.524-0.24-1.394 9.213-0.603 18.147 1.873 26.741 2.202 0.102 4.257 0.083 6.281 0.324 1.911 0.228 3.432 1.343 4.759 2.711 3.317 3.42 4.561 7.653 4.85 12.268 0.046 0.733 0.103 1.467 0.124 2.202 0.042 1.467-0.535 2.068-1.997 2.082-1.493 0.014-2.987 3e-3 -4.57 3e-3 0.252 0.369 0.521 0.793 0.82 1.194 10.42 13.976 24.183 22.89 41.054 27.092 0.577 0.143 1.089 0.372 1.476-0.464 1.703-3.683 4.431-6.239 8.408-7.346 0.059-0.016 0.098-0.113 0.2-0.24-2.024-0.337-4.011-0.632-5.982-1.003-23.122-4.351-41.969-23.448-46.009-46.604-4.569-26.187 10.764-51.234 36.171-59.088 0.61-0.189 1.219-0.384 1.928-0.608-1.009-3.626-1.99-7.151-3.039-10.921-2.674 0.924-5.254 1.816-7.845 2.711 0.43 1.867 0.851 3.539 1.19 5.228 0.161 0.8 0.233 1.631 0.228 2.447-0.013 2.083-0.458 2.58-2.524 2.492-4.577-0.196-9.15-0.499-13.727-0.725-0.435-0.022-0.99 0.058-1.308 0.316-7.018 5.7-12.584 12.573-16.573 20.702-0.034 0.069-5e-3 0.167-5e-3 0.308" fill="#f37d57"/>
   </g>
   <g transform="translate(424.82 154.57)">
    <path d="m0 0c8.635 1.113 17.148 2.211 25.874 3.336-0.052-11.593-3.637-21.865-10.281-31.323-1.663 1.185-3.239 2.3-4.806 3.425-4.18 3.004-8.357 6.012-12.535 9.02-0.482 0.347-1.014 0.58-0.622 1.419 2.055 4.405 2.807 9.056 2.37 14.123" fill="#fff"/>
   </g>
   <g transform="translate(384.67 90.274)">
    <path d="m0 0c0.917 3.698 1.807 7.291 2.736 11.045 9.312-0.991 18.398-0.137 27.326 3.156 1.143-3.802 2.259-7.514 3.428-11.399-10.937-3.57-22.009-4.635-33.49-2.802" fill="#f37d57"/>
   </g>
   <g transform="translate(431.95 55.06)">
    <path d="m 0,0 c -3.668,12.224 -7.303,24.336 -10.965,36.537 1.167,0.466 2.237,0.894 3.471,1.386 C -3.508,25.667 0.456,13.48 4.474,1.13 3.008,0.76 1.609,0.406 0,0" fill="#f7c0d4"/>
   </g>
   <g transform="translate(367.94 51.185)">
    <path d="m0 0c3.543 12.732 7.029 25.26 10.559 37.943 1.093-0.23 2.126-0.447 3.337-0.702-0.375-1.523-0.731-2.973-1.091-4.423-2.589-10.405-5.192-20.807-7.746-31.221-0.199-0.81-0.538-1.208-1.335-1.273-1.157-0.095-2.312-0.2-3.724-0.324" fill="#f7c0d4"/>
   </g>
   <g transform="translate(405.16 153.28)">
    <path d="m0 0c-0.134-2.161-0.733-3.93-2.221-5.284-1.473-1.341-3.162-1.94-5.116-1.129-1.725 0.715-3.188 3-3.096 4.876 0.12 2.456 1.123 4.5 3.076 6.025 2.267 1.772 6.16 0.298 6.993-2.645 0.186-0.66 0.268-1.349 0.364-1.843" fill="#f37d57"/>
   </g>
   <g transform="translate(419.29 108.89)">
    <path d="m0 0c-1.1-0.494-2.031-0.911-3.071-1.378-2.06 6.852-4.079 13.575-6.125 20.385 0.826 0.461 1.608 0.898 2.548 1.423 2.215-6.81 4.409-13.548 6.648-20.43" fill="#f7c0d4"/>
   </g>
   <g transform="translate(385.69 103.89)">
    <path d="m0 0c-1.07 0.227-1.906 0.404-2.908 0.616 2.158 7.754 4.29 15.414 6.456 23.2 0.773-0.302 1.399-0.547 2.162-0.846-1.901-7.65-3.79-15.246-5.71-22.97" fill="#f7c0d4"/>
   </g>
   <g transform="translate(411.91 131.57)">
    <path d="m0 0c-0.831-0.478-1.598-0.918-2.476-1.423-0.744 2.441-1.442 4.705-2.126 6.975-0.673 2.232-1.21 4.517-2.038 6.691-0.695 1.826-0.655 3.305 1.16 4.594 1.812-5.57 3.629-11.152 5.48-16.837" fill="#f7c0d4"/>
   </g>
   <g transform="translate(416.88 105.28)">
    <path d="m0 0c1.033 0.457 2.002 0.887 3.124 1.384 1.258-3.867 2.477-7.617 3.734-11.487-1.187-0.465-2.252-0.884-3.422-1.344-1.165 3.88-2.29 7.628-3.436 11.447" fill="#f7c0d4"/>
   </g>
   <g transform="translate(382.39 90.636)">
    <path d="m0 0c-1.183 0.272-2.171 0.499-3.268 0.751 1.029 3.686 2.021 7.243 3.037 10.882 1.036-0.211 1.949-0.397 2.972-0.605-0.919-3.695-1.81-7.284-2.741-11.028" fill="#f7c0d4"/>
   </g>
   <g transform="translate(394.44 146.38)">
    <path d="m0 0c1.309-0.65 1.509-1.438 1.164-2.71-1.22-4.507-2.284-9.056-3.413-13.587-0.07-0.282-0.183-0.554-0.31-0.931-0.695 0.288-1.314 0.543-2.011 0.832 1.54 5.526 3.052 10.953 4.57 16.396" fill="#f7c0d4"/>
   </g>
   <g transform="translate(92.584 350.09)">
    <path d="m0 0c0-1.164-0.406-2.5 0.087-3.22 0.924-1.347 2.369-2.337 3.641-3.516 1.686 0.847 3.213 2.98 3.561 5.088-1.946 2.268-4.64 0.979-7.289 1.648m10.682-15.709c2.171 1.154 3.647 2.86 4.862 4.844 1.431 2.336 1.448 2.332-0.637 4.019-0.672 0.544-1.359 1.071-2.055 1.583-1.089 0.803-2.192 1.587-3.033 2.194-1.557-2.063-2.988-3.959-4.45-5.894 1.662-2.11 3.45-4.382 5.313-6.746m8.077 5.833c-1.775-3.28-3.67-6.031-6.701-7.703 1.85-2.754 3.556-5.296 5.321-7.926 3.105 2.25 5.958 4.603 7.712 8.007 0.189 0.367 0.219 1.11-0.015 1.353-2.004 2.076-4.086 4.077-6.317 6.269m8.584-8.373c-2.196-4.09-5.379-6.731-8.663-9.196 1.497-2.774 2.924-5.478 4.439-8.133 0.154-0.271 0.906-0.444 1.26-0.32 4.052 1.424 7.23 3.976 9.477 7.64 0.191 0.311 0.19 0.973-0.017 1.259-2.07 2.862-4.201 5.679-6.496 8.75m8.674-11.662c-0.155-0.037-0.31-0.074-0.465-0.111-2.794-3.949-6.456-6.763-10.976-8.336 1.699-4.059 3.358-8.022 5.142-12.284 2.735 1.333 5.496 2.474 8.028 3.996 1.391 0.837 2.427 2.29 3.549 3.531 0.263 0.291 0.445 0.95 0.298 1.273-1.819 3.995-3.706 7.959-5.576 11.931m-95.481-10.589c0.365 0.187 0.52 0.245 0.652 0.336 4.506 3.14 9.063 6.208 13.497 9.447 3.608 2.636 3.522 2.724 2.907 7.237-0.326 2.398-0.645 4.802-0.798 7.214-0.045 0.713 0.293 1.744 0.817 2.108 0.426 0.295 1.481-0.027 2.099-0.364 0.977-0.533 1.787-1.366 2.744-1.948 0.317-0.193 1.012-0.182 1.289 0.04 2.797 2.251 5.563 4.541 8.279 6.888 0.422 0.364 0.73 1.061 0.772 1.628 0.163 2.198 0.179 4.407 0.283 6.61 0.089 1.908 1.442 2.593 3.022 1.544 0.431-0.287 0.858-0.595 1.231-0.952 0.967-0.927 1.814-0.829 2.809 0.044 2.284 2.004 4.644 3.923 6.989 5.89-2.569 2.1-2.992 4.89-2.159 8.042-0.364 0-0.578 0.021-0.788-4e-3 -0.558-0.064-1.116-0.135-1.67-0.226-12.255-2.011-22.562-7.449-30.382-17.265-8.4-10.548-11.076-22.925-11.593-36.269m107.99 105.19c-1.31 0.104-2.297 0.215-3.285 0.253-5.041 0.2-10.013-0.411-14.959-1.303-9.196-1.659-17.431-5.284-24.221-11.855-6.981-6.755-10.51-15.332-12.647-24.552-0.542-2.339-0.259-4.875-0.282-7.322-3e-3 -0.297 0.394-0.754 0.706-0.871 1.197-0.452 2.435-0.795 3.22-1.041 2.615 2.406 5.159 4.743 7.699 7.085 1.907 1.759 3.8 3.533 5.716 5.284 0.777 0.711 0.866 1.478 0.496 2.449-0.662 1.733-1.313 3.48-1.805 5.267-0.521 1.901 0.401 2.828 2.258 2.252 2.182-0.678 4.336-1.473 6.438-2.366 0.869-0.369 1.469-0.353 2.234 0.171 4.139 2.836 8.309 5.625 12.466 8.434 0.166 0.113 0.307 0.262 0.507 0.435-0.988 1.292-2.008 2.477-2.838 3.782-0.342 0.536-0.552 1.462-0.311 1.968 0.191 0.403 1.192 0.677 1.774 0.593 2.005-0.289 4.013-0.657 5.962-1.203 1.093-0.306 1.572-2e-3 2.176 0.858 2.19 3.111 4.475 6.154 6.737 9.212 0.56 0.757 1.169 1.477 1.959 2.47m-124.93-17.383c0.444-0.37 0.692-0.608 0.969-0.803 4.242-2.99 8.512-5.941 12.716-8.982 1.053-0.762 1.917-0.776 3.071-0.273 2.407 1.051 4.863 2.003 7.35 2.849 0.567 0.192 1.616 6e-3 1.936-0.402 0.335-0.429 0.252-1.411 0.011-2.015-0.459-1.155-1.112-2.242-1.774-3.302-0.639-1.025-0.636-1.772 0.508-2.438 1.382-0.802 2.849-1.551 4.013-2.615 2.334-2.134 4.479-2.089 6.864-0.126 0.878 0.722 2.022 1.17 3.105 1.584 1.648 0.63 2.559-0.04 2.419-1.777-0.094-1.155-0.31-2.317-0.624-3.433-0.583-2.069-0.643-2.088 1.329-2.922 5.371-2.269 10.751-4.521 16.138-6.754 2.423-1.004 6.295 0.129 7.625 2.226 0.143 0.226 0.066 0.673-0.046 0.966-0.631 1.653-1.209 3.337-1.979 4.927-5.063 10.472-13.2 17.965-23.201 23.559-5.775 3.231-11.937 5.365-18.658 5.138-5.832-0.196-11.446-1.66-16.952-3.517-1.582-0.533-3.113-1.215-4.82-1.89m62.18-53.021c-0.469-0.574-0.875-1.133-1.343-1.634-5.007-5.36-8.487-11.663-11.266-18.378-4.098-9.905-5.511-20.117-3.446-30.739 1.431-7.357 5.139-13.617 9.179-19.742 0.207-0.315 0.361-0.664 0.54-0.997 0.568 0.823 0.767 1.345 0.938 1.876 2.346 7.285 4.433 14.667 7.134 21.818 1.397 3.7 1.038 6.466-1.595 9.25-1.146 1.212-2.012 2.707-2.876 4.151-0.251 0.421-0.274 1.279-4e-3 1.628 0.275 0.354 1.081 0.526 1.585 0.426 1.094-0.217 2.147-0.649 3.212-1.009 0.891-0.301 1.774-0.625 2.739-0.968 1.15 3.82 2.258 7.498 3.365 11.177 0.05 0.165 0.174 0.344 0.143 0.491-0.093 0.447-0.158 0.937-0.392 1.311-0.893 1.431-1.868 2.81-2.771 4.235-0.566 0.893-1.468 1.799-0.826 2.945 0.639 1.143 1.859 0.72 2.843 0.633 1.242-0.109 1.989 0.174 2.039 1.567 0.023 0.642 0.236 1.275 0.304 1.918 0.269 2.55 0.515 5.102 0.782 7.79-4.759-2.347-7.801-1.296-10.284 2.251m87.194 16.443c-0.084 0.227-0.108 0.359-0.177 0.461-0.17 0.25-0.354 0.491-0.544 0.727-4.142 5.153-9.102 9.388-14.835 12.635-8.498 4.812-17.495 7.671-27.431 6.117-10.292-1.61-18.692-6.472-25.082-14.735-0.277-0.358-0.497-0.76-0.803-1.234 5.143-0.24 6.844-3.483 7.315-8.147 3.002 0 5.937-0.031 8.868 0.042 0.34 8e-3 0.85 0.537 0.963 0.919 0.453 1.531 0.707 3.123 1.192 4.642 0.187 0.58 0.729 1.329 1.236 1.445 0.499 0.113 1.335-0.331 1.716-0.787 1.16-1.391 2.236-2.864 3.214-4.389 0.508-0.79 1.044-1.101 1.976-1.103 5.146-0.014 10.292-0.068 15.437-0.163 0.916-0.017 1.36 0.289 1.499 1.174 0.266 1.705 0.476 3.428 0.894 5.098 0.153 0.613 0.758 1.433 1.282 1.54 0.508 0.103 1.371-0.45 1.739-0.96 1.035-1.433 1.954-2.96 2.796-4.517 0.375-0.692 0.798-0.934 1.521-0.85 2.231 0.261 4.464 0.499 6.694 0.771 3.471 0.422 6.94 0.864 10.53 1.314m-82.655 12.139c0.434 6.351 2.677 12.065 5.225 17.67 5.845 12.857 15.981 20.583 29.414 24.203 7.311 1.971 14.77 2.847 22.356 2.336 0.903-0.061 1.813-0.165 2.698-0.354 1.417-0.303 1.824-1.301 1.02-2.508-0.526-0.79-1.184-1.49-1.75-2.254-2.701-3.65-5.403-7.299-8.078-10.968-1.239-1.698-1.404-1.768-3.446-1.21-1.483 0.406-2.984 0.747-4.789 1.194 0.919-1.248 1.67-2.184 2.327-3.182 0.718-1.09 0.546-1.803-0.527-2.526-4.485-3.022-9.002-5.998-13.45-9.074-1.482-1.024-2.769-1.218-4.414-0.307-1.592 0.883-3.382 1.411-5.086 2.095-0.077-0.088-0.154-0.176-0.232-0.264 0.435-1.204 0.775-2.453 1.324-3.601 1.059-2.218 0.725-4.047-1.116-5.699-2.64-2.37-5.249-4.777-7.803-7.238-1.494-1.44-2.835-3.037-4.289-4.52-0.598-0.61-0.813-1.116-0.236-1.883 0.293-0.39 0.336-0.968 0.569-1.704 0.428 0.475 0.846 0.817 1.113 1.252 6.077 9.897 14.982 15.76 26.204 18.182 10.983 2.371 21.114-0.335 30.681-5.673 6.26-3.493 11.668-8.055 16.139-13.684 0.505-0.635 0.962-1.344 1.274-2.089 0.542-1.293 0.05-2.257-1.344-2.498-1.743-0.3-3.518-0.415-5.277-0.621-4.335-0.507-8.667-1.05-13.006-1.519-2.292-0.247-2.516-0.039-3.607 2.048-0.496 0.948-1.107 1.835-1.815 2.992-0.298-1.55-0.483-2.844-0.805-4.105-0.495-1.942-1.149-2.433-3.107-2.411-5.71 0.067-11.421 0.167-17.131 0.225-1.092 0.012-1.745 0.56-2.288 1.428-0.793 1.267-1.647 2.495-2.673 4.039-0.364-1.497-0.623-2.616-0.909-3.727-0.546-2.128-1.256-2.723-3.48-2.701-2.683 0.029-5.364 0.133-8.045 0.247-0.763 0.032-1.22-0.149-1.656-0.869-0.593-0.977-1.449-1.794-2.275-2.778 0.217-0.143 0.55-0.366 0.885-0.586 14.08-9.217 25.425-20.909 32.678-36.265 2.924-6.192 5.355-12.567 6.464-19.372 0.229-1.408 0.428-2.822 0.593-4.238 0.097-0.824 0.205-1.789-0.968-1.904-1.179-0.115-1.249 0.886-1.327 1.689-0.435 4.454-1.335 8.802-2.854 13.015-0.19 0.528-0.385 1.053-0.689 1.883-3.143-4.398-7.9-5.853-12.506-7.673 0.814-3.047 1.63-6.083 2.432-9.122 0.132-0.499 0.333-1.032 0.265-1.517-0.055-0.391-0.425-0.985-0.729-1.033-0.395-0.063-0.976 0.221-1.267 0.544-0.29 0.321-0.352 0.868-0.458 1.329-3.951 17.221-11.963 32.476-22.596 46.432-2.824 3.707-5.926 7.201-8.9 10.793-0.154-0.056-0.307-0.112-0.46-0.168-0.179-1.893-0.328-3.79-0.546-5.678-0.29-2.533-0.538-5.077-0.981-7.584-0.449-2.549-0.887-2.817-3.447-2.894-0.169-5e-3 -0.337-0.035-0.771-0.082 0.907-1.36 1.673-2.647 2.578-3.827 1.048-1.367 1.19-2.709 0.645-4.36-1.178-3.57-2.173-7.202-3.23-10.813-0.488-1.668-1.099-2.062-2.759-1.604-1.148 0.316-2.27 0.727-3.706 1.193 1.106-1.53 1.989-2.847 2.969-4.087 1.71-2.162 1.915-4.339 0.991-7.013-2.766-8.009-5.263-16.111-7.875-24.174-0.252-0.78-0.518-1.563-0.857-2.309-0.596-1.313-1.717-1.591-2.832-0.682-0.6 0.488-1.195 1.036-1.622 1.672-3.745 5.579-7.276 11.273-8.977 17.878-2.952 11.461-1.901 22.664 2.37 33.595 3.027 7.75 6.959 14.997 12.87 20.987 1.165 1.18 2.161 2.265 1.906 4.086-0.083 0.593 0.209 1.238 0.391 2.169-1.21-1.009-2.224-1.802-3.179-2.66-3.098-2.786-3.502-2.843-7.331-0.564 0-1.515-0.11-2.826 0.022-4.112 0.277-2.686-0.737-4.572-2.933-6.156-2.556-1.843-4.884-4-7.306-6.028-1.422-1.191-2.054-1.231-3.559-0.154-0.726 0.518-1.431 1.064-2.234 1.664 0.348-3.581 0.644-6.979 1.023-10.368 0.145-1.294-0.184-2.274-1.259-3.035-5.754-4.073-11.478-8.188-17.27-12.205-0.65-0.451-1.871-0.752-2.453-0.435-0.573 0.312-0.96 1.508-0.932 2.3 0.409 11.54 2.335 22.68 8.481 32.768 7.117 11.68 17.54 18.731 30.55 22.285 0.32 0.087 0.638 0.184 1.268 0.366-0.97 0.4-1.675 0.687-2.377 0.981-4.228 1.767-8.476 3.489-12.676 5.321-2.325 1.014-2.572 1.737-1.87 4.199 0.267 0.936 0.535 1.872 0.538 3.006-1.451-0.829-2.938-1.602-4.344-2.501-1.63-1.041-3.004-0.993-4.6 0.241-2.115 1.636-4.479 2.946-6.677 4.481-1.786 1.247-2.008 2.236-1.077 4.225 0.434 0.927 0.993 1.796 1.352 2.924-1.444-0.628-2.983-1.1-4.311-1.916-2.827-1.735-5.182-1.345-7.768 0.696-3.697 2.918-7.675 5.479-11.518 8.212-0.596 0.423-1.176 0.899-1.662 1.441-0.992 1.108-0.806 2.345 0.541 2.987 1.791 0.854 3.626 1.646 5.501 2.295 5.414 1.875 10.964 3.203 16.695 3.561 4.764 0.298 9.443-0.379 13.868-2.174 14.307-5.802 25.37-15.163 31.868-29.441 0.068-0.148 0.159-0.286 0.239-0.428" fill="#8f5e3b"/>
   </g>
   <g transform="translate(165.56 360.82)">
    <path d="m0 0c-3.59-0.449-7.059-0.892-10.53-1.314-2.23-0.271-4.464-0.509-6.694-0.77-0.723-0.085-1.146 0.157-1.521 0.85-0.842 1.556-1.761 3.083-2.796 4.517-0.368 0.509-1.231 1.062-1.739 0.959-0.524-0.106-1.129-0.927-1.282-1.539-0.418-1.67-0.628-3.393-0.895-5.099-0.138-0.885-0.583-1.19-1.499-1.173-5.145 0.094-10.291 0.148-15.436 0.162-0.932 3e-3 -1.468 0.314-1.976 1.104-0.978 1.524-2.054 2.998-3.215 4.388-0.38 0.457-1.216 0.901-1.715 0.787-0.507-0.116-1.05-0.864-1.236-1.444-0.486-1.519-0.739-3.112-1.192-4.643-0.113-0.382-0.624-0.91-0.963-0.919-2.932-0.073-5.866-0.042-8.869-0.042-0.47 4.665-2.171 7.907-7.315 8.148 0.307 0.474 0.527 0.876 0.804 1.234 6.39 8.263 14.79 13.124 25.082 14.734 9.936 1.555 18.933-1.304 27.43-6.117 5.734-3.246 10.694-7.481 14.836-12.635 0.19-0.236 0.374-0.477 0.544-0.727 0.069-0.101 0.093-0.234 0.177-0.461" fill="#7fe5b9"/>
   </g>
   <g transform="translate(78.362 344.38)">
    <path d="m0 0c2.483-3.547 5.525-4.598 10.285-2.251-0.268-2.688-0.514-5.241-0.783-7.791-0.067-0.643-0.281-1.275-0.304-1.917-0.05-1.394-0.797-1.676-2.039-1.567-0.984 0.087-2.204 0.51-2.843-0.633-0.642-1.146 0.26-2.052 0.826-2.945 0.903-1.425 1.879-2.804 2.772-4.235 0.233-0.374 0.298-0.864 0.392-1.311 0.03-0.147-0.094-0.326-0.143-0.492-1.108-3.678-2.216-7.357-3.366-11.176-0.965 0.342-1.848 0.667-2.739 0.968-1.064 0.36-2.118 0.792-3.212 1.009-0.504 0.099-1.309-0.073-1.585-0.427-0.27-0.348-0.247-1.207 4e-3 -1.628 0.864-1.443 1.731-2.938 2.876-4.15 2.633-2.784 2.992-5.551 1.595-9.25-2.7-7.151-4.788-14.533-7.133-21.818-0.171-0.532-0.371-1.053-0.939-1.877-0.179 0.333-0.333 0.683-0.54 0.997-4.04 6.125-7.748 12.386-9.179 19.743-2.065 10.622-0.652 20.834 3.447 30.739 2.778 6.715 6.258 13.018 11.265 18.378 0.468 0.501 0.874 1.06 1.343 1.634" fill="#7fe5b9"/>
   </g>
   <g transform="translate(16.182 397.4)">
    <path d="m0 0c1.707 0.674 3.238 1.356 4.82 1.89 5.506 1.857 11.119 3.32 16.951 3.517 6.722 0.227 12.884-1.907 18.659-5.138 10.001-5.595 18.137-13.087 23.201-23.56 0.769-1.589 1.348-3.273 1.979-4.926 0.112-0.293 0.189-0.74 0.046-0.966-1.33-2.097-5.202-3.231-7.625-2.226-5.387 2.233-10.767 4.485-16.138 6.754-1.972 0.834-1.912 0.853-1.329 2.922 0.314 1.116 0.53 2.278 0.624 3.433 0.14 1.737-0.771 2.407-2.419 1.777-1.083-0.414-2.227-0.862-3.105-1.584-2.385-1.963-4.53-2.008-6.864 0.126-1.164 1.064-2.632 1.813-4.013 2.615-1.144 0.665-1.147 1.413-0.508 2.438 0.661 1.06 1.315 2.147 1.774 3.302 0.24 0.604 0.323 1.586-0.011 2.015-0.32 0.408-1.37 0.594-1.936 0.402-2.487-0.846-4.943-1.798-7.351-2.849-1.153-0.504-2.017-0.489-3.07 0.272-4.204 3.042-8.474 5.993-12.716 8.982-0.277 0.196-0.525 0.433-0.969 0.804" fill="#7fe5b9"/>
   </g>
   <g transform="translate(141.11 414.78)">
    <path d="m0 0c-0.79-0.993-1.399-1.713-1.958-2.47-2.263-3.058-4.548-6.101-6.737-9.212-0.605-0.86-1.084-1.164-2.177-0.858-1.948 0.546-3.957 0.914-5.962 1.203-0.582 0.084-1.583-0.19-1.774-0.593-0.241-0.507-0.031-1.432 0.311-1.968 0.831-1.305 1.85-2.49 2.838-3.782-0.2-0.173-0.34-0.322-0.506-0.435-4.158-2.809-8.328-5.598-12.467-8.434-0.765-0.524-1.364-0.54-2.234-0.171-2.102 0.893-4.255 1.688-6.438 2.366-1.857 0.576-2.779-0.351-2.257-2.252 0.491-1.787 1.142-3.534 1.804-5.268 0.37-0.97 0.282-1.737-0.496-2.448-1.916-1.751-3.809-3.525-5.716-5.284-2.54-2.342-5.084-4.679-7.699-7.085-0.785 0.246-2.023 0.589-3.22 1.041-0.312 0.117-0.708 0.574-0.706 0.871 0.023 2.446-0.26 4.983 0.282 7.322 2.137 9.22 5.667 17.797 12.647 24.552 6.79 6.571 15.026 10.196 24.221 11.855 4.946 0.892 9.918 1.503 14.959 1.303 0.989-0.038 1.975-0.149 3.285-0.253" fill="#7fe5b9"/>
   </g>
   <g transform="translate(33.12 309.59)">
    <path d="m0 0c0.517 13.344 3.192 25.721 11.593 36.269 7.82 9.816 18.127 15.254 30.382 17.265 0.554 0.091 1.112 0.162 1.67 0.226 0.209 0.025 0.424 4e-3 0.788 4e-3 -0.833-3.152-0.411-5.942 2.159-8.042-2.345-1.967-4.705-3.886-6.989-5.89-0.996-0.873-1.842-0.971-2.81-0.044-0.372 0.357-0.799 0.665-1.23 0.952-1.581 1.049-2.933 0.364-3.022-1.544-0.104-2.203-0.12-4.412-0.283-6.61-0.042-0.567-0.35-1.264-0.772-1.628-2.716-2.347-5.483-4.637-8.279-6.888-0.277-0.222-0.972-0.233-1.29-0.04-0.956 0.582-1.766 1.415-2.743 1.948-0.618 0.337-1.674 0.659-2.099 0.364-0.524-0.364-0.862-1.395-0.817-2.108 0.153-2.412 0.471-4.816 0.798-7.214 0.614-4.513 0.701-4.601-2.908-7.237-4.433-3.239-8.99-6.307-13.496-9.447-0.132-0.091-0.287-0.149-0.652-0.336" fill="#7fe5b9"/>
   </g>
   <g transform="translate(128.6 320.18)">
    <path d="m0 0c1.87-3.972 3.757-7.936 5.577-11.931 0.147-0.323-0.035-0.982-0.298-1.273-1.123-1.241-2.159-2.694-3.55-3.531-2.531-1.523-5.293-2.663-8.027-3.996-1.785 4.262-3.443 8.224-5.142 12.283 4.52 1.573 8.182 4.388 10.975 8.336 0.155 0.038 0.31 0.075 0.465 0.112" fill="#f9e595"/>
   </g>
   <g transform="translate(119.93 331.84)">
    <path d="m0 0c2.295-3.071 4.426-5.888 6.496-8.75 0.207-0.286 0.208-0.948 0.018-1.259-2.247-3.664-5.426-6.216-9.477-7.64-0.355-0.124-1.107 0.049-1.261 0.32-1.515 2.655-2.942 5.359-4.439 8.133 3.285 2.465 6.468 5.106 8.663 9.196" fill="#f9e595"/>
   </g>
   <g transform="translate(111.34 340.22)">
    <path d="m0 0c2.23-2.192 4.312-4.192 6.316-6.268 0.235-0.243 0.205-0.987 0.016-1.354-1.754-3.404-4.607-5.756-7.712-8.006-1.766 2.63-3.472 5.171-5.321 7.926 3.031 1.671 4.926 4.422 6.701 7.702" fill="#f9e595"/>
   </g>
   <g transform="translate(103.27 334.38)">
    <path d="m0 0c-1.862 2.364-3.651 4.636-5.312 6.746 1.461 1.935 2.892 3.831 4.45 5.894 0.841-0.607 1.943-1.391 3.032-2.194 0.697-0.512 1.384-1.039 2.056-1.583 2.085-1.687 2.067-1.683 0.636-4.019-1.215-1.984-2.691-3.69-4.862-4.844" fill="#f9e595"/>
   </g>
   <g transform="translate(92.584 350.09)">
    <path d="m0 0c2.649-0.669 5.343 0.62 7.289-1.648-0.348-2.108-1.875-4.241-3.561-5.088-1.272 1.179-2.717 2.169-3.641 3.516-0.493 0.72-0.087 2.056-0.087 3.22" fill="#f9e595"/>
   </g>
   <g transform="translate(371.72 378.44)">
    <path d="m0 0c1.905-1.897 3.813-2.775 6.099-2.622 0.511 0.034 1.12 0.339 1.472 0.716 1.325 1.417 2.422 3.078 3.872 4.34 1.476 1.283 1.178 2.854 1.453 4.249-1.43 0.139-2.706 0.296-3.985 0.37-0.424 0.025-0.978-0.028-1.269-0.28-2.539-2.196-5.032-4.446-7.642-6.773m0.283-14.384c1.649 3.108 3.298 6.216 4.992 9.408-2.583 0.219-4.753 1.279-6.724 3.122-2.53-3.171-4.965-6.223-7.419-9.298 2.597-2.856 5.886-3.015 9.151-3.232m-10.577 1.349c-2.077-3.717-4.086-7.28-6.033-10.877-0.129-0.237 0.126-0.803 0.355-1.095 1.842-2.339 7.835-4.007 10.774-3.009 0.236 0.08 0.501 0.337 0.584 0.572 1.268 3.578 2.509 7.166 3.789 10.847-3.357 0.232-6.659 0.786-9.469 3.562m4.682-17.416c-4.505-0.297-8.591 0.663-12.251 3.818-1.384-3.672-2.669-7.2-4.048-10.69-0.5-1.264-0.101-2.001 0.943-2.697 3.228-2.147 6.829-2.826 10.615-2.821 2.248 3e-3 1.994-0.076 2.314 1.843 0.086 0.511 0.206 1.017 0.323 1.522 0.692 2.977 1.387 5.955 2.104 9.025m-3.283-14.739c-5.14-0.012-9.932 0.698-14.435 4.01-0.737-4.778-1.43-9.16-2.055-13.55-0.046-0.319 0.317-0.894 0.63-1.035 4.203-1.891 8.562-2.577 13.128-1.603 1.175 0.25 1.857 0.746 1.689 2.082-0.075 0.587 0.06 1.203 0.125 1.804 0.298 2.732 0.605 5.462 0.918 8.292m-52.959 39.835c0.057-0.094 0.116-0.187 0.174-0.281 1.108 0.161 2.22 0.29 3.321 0.488 6.036 1.089 12.066 2.203 18.103 3.285 0.969 0.174 1.485 0.669 1.739 1.628 0.499 1.878 1.003 3.767 1.705 5.573 0.27 0.692 1.003 1.496 1.676 1.672 1.061 0.277 1.534-0.777 1.856-1.629 0.467-1.241 0.833-2.521 1.266-3.857 0.465 0.071 0.893 0.107 1.307 0.202 4.761 1.086 9.5 2.279 14.288 3.222 1.783 0.351 2.709 1.125 3.143 2.843 0.368 1.459 0.873 2.912 1.545 4.253 0.338 0.676 1.15 1.459 1.81 1.519 0.543 0.05 1.298-0.806 1.739-1.42 0.521-0.725 0.74-1.661 1.221-2.422 0.203-0.32 0.792-0.658 1.125-0.591 3.254 0.659 6.49 1.402 9.787 2.134-0.983 4.496 1.191 7.306 5.002 9.312-0.474 0.357-0.789 0.657-1.158 0.861-5.783 3.198-11.968 4.785-18.573 4.168-7.568-0.707-14.718-2.972-21.543-6.289-9.043-4.394-16.656-10.636-23.378-18.039-2.028-2.233-4.103-4.423-6.155-6.632m128.76 81.991c-0.5 0.102-0.784 0.204-1.07 0.212-5.196 0.128-10.373 0.053-15.496-1.034-8.338-1.771-16.052-4.968-22.662-10.389-9.066-7.435-14.217-17.214-16.565-28.612-1.011-4.915-1.295-9.765 0.258-14.602 0.122-0.381 0.448-0.91 0.766-0.979 1.813-0.395 3.652-0.671 5.583-1.005 0.836 2.717 2.744 4.715 5.815 5.536 0.26 0.069 0.519 0.316 0.684 0.548 2.788 3.908 5.582 7.813 8.305 11.766 0.252 0.368 0.239 1.192-6e-3 1.579-0.714 1.127-1.575 2.168-2.444 3.187-0.546 0.64-1.221 1.227-0.781 2.145 0.455 0.947 1.359 0.75 2.174 0.634 3.123-0.448 6.239-0.942 9.368-1.335 0.55-0.07 1.405 0.069 1.688 0.44 2.903 3.823 5.704 7.725 8.568 11.578 0.582 0.783 0.498 1.391-0.141 2.046-0.845 0.866-1.763 1.688-2.458 2.665-0.367 0.517-0.557 1.394-0.382 1.971 0.106 0.346 1.084 0.619 1.655 0.592 1.68-0.078 3.369-0.235 5.022-0.535 0.876-0.158 1.355 0.092 1.865 0.73 2.922 3.647 5.878 7.266 8.812 10.902 0.477 0.59 0.9 1.221 1.442 1.96m-35.739-65.661c2.953-0.163 5.712-0.279 8.465-0.478 3.402-0.247 6.801-0.553 10.2-0.855 0.881-0.079 1.504 0.245 1.936 0.997 0.859 1.498 1.696 3.009 2.589 4.486 1.106 1.832 2.81 1.82 3.765-0.088 0.849-1.696 1.618-3.45 2.225-5.244 0.336-0.993 0.85-1.392 1.815-1.468 3.66-0.285 7.32-0.579 10.976-0.903 0.776-0.069 0.962 0.362 1.081 0.969 0.342 1.738 0.614 3.497 1.089 5.198 0.196 0.703 0.749 1.68 1.301 1.804 0.539 0.121 1.52-0.54 1.896-1.123 1.285-1.994 2.488-4.056 3.529-6.187 0.723-1.48 1.73-2.037 3.326-2.06 3.243-0.046 6.485-0.205 9.723-0.371 5.355-0.275 10.706-0.595 16.059-0.885 0.27-0.015 0.547 0.072 0.972 0.135-0.467 0.8-0.815 1.492-1.251 2.124-5.02 7.294-11.221 13.389-18.772 18.019-7.815 4.792-16.422 7.205-25.517 7.933-9.479 0.758-18.731-0.359-27.692-3.594-3.171-1.145-6.142-2.693-8.861-4.774 4.549-3.64 5.183-9.355 1.146-13.635m-7.994-14.514c1.834-4.662 3.622-9.249 5.473-13.811 0.108-0.266 0.776-0.53 1.092-0.447 1.125 0.293 2.188 0.853 3.321 1.081 0.685 0.138 1.672 0.087 2.121-0.322 0.37-0.336 0.363-1.397 0.152-2.008-0.829-2.407-1.825-4.756-2.709-7.145-0.16-0.432-0.279-1.063-0.081-1.414 2.524-4.483 5.119-8.927 7.669-13.395 0.438-0.767 0.953-1.006 1.804-0.718 1.268 0.428 2.546 0.881 3.856 1.117 0.687 0.123 1.672 0.036 2.112-0.385 0.346-0.332 0.255-1.393 0.024-2.004-0.856-2.26-1.814-4.487-2.817-6.688-0.341-0.747-0.375-1.326 0.05-2.045 3.879-6.547 7.73-13.11 11.592-19.668 0.125-0.211 0.292-0.398 0.678-0.919 0.978 1.761 1.989 3.26 2.687 4.892 2.497 5.836 4.024 11.923 4.77 18.247 0.94 7.963 0.074 15.662-3.133 22.985-6.193 14.144-16.572 24.292-30.34 31.085-0.686 0.338-1.414 0.596-2.277 0.955 0.166-4.532-1.774-7.6-6.044-9.393m22.504-39.491c-1.354-0.383-2.291-0.662-3.237-0.912-2.152-0.571-2.866-0.371-4.007 1.548-2.122 3.569-4.136 7.202-6.203 10.803-0.604 1.05-1.22 2.093-1.864 3.119-0.589 0.937-0.541 1.817-0.075 2.815 0.945 2.027 1.783 4.104 2.787 6.443-1.226-0.352-2.11-0.634-3.009-0.859-1.977-0.493-2.807-0.094-3.549 1.79-1.712 4.345-3.41 8.696-5.062 13.063-0.353 0.934-0.776 1.444-1.877 1.542-2.482 0.223-4.35 1.558-5.69 3.643-0.187 0.29-0.362 0.587-0.547 0.878-0.017 0.026-0.071 0.027-0.378 0.131-1.447-1.794-3.088-3.578-4.447-5.555-5.097-7.412-8.523-15.609-11.124-24.182-2.902-9.559-4.809-19.294-5.231-29.293-0.195-4.624-0.339-9.251-0.51-13.877-0.012-0.344 0.058-0.774-0.118-1.009-0.252-0.339-0.68-0.708-1.06-0.739-0.3-0.025-0.756 0.381-0.929 0.709-0.188 0.353-0.181 0.839-0.167 1.265 0.109 3.633 0.241 7.265 0.361 10.898 0.015 0.423 2e-3 0.848 2e-3 1.39-5.275-1.212-10.306-0.711-15.568 1.604 0-2.014 0.048-3.727-0.02-5.434-0.036-0.91 0.314-2.295-1.222-2.232-1.415 0.057-1.053 1.358-1.048 2.243 0.115 22.133 7.775 41.511 21.513 58.641 3.766 4.695 7.697 9.252 12.61 13.056-0.381 0.409-0.717 0.769-0.842 0.902-1.648-0.429-3.081-0.833-4.528-1.171-2.232-0.521-4.487-0.945-6.706-1.512-1.3-0.331-2.08 0.11-2.607 1.257-0.357 0.778-0.746 1.543-1.274 2.63-0.305-0.854-0.511-1.436-0.719-2.018-0.437-1.22-0.725-2.527-1.367-3.628-0.43-0.738-1.282-1.51-2.083-1.706-5.542-1.356-11.114-2.59-16.689-3.807-2.625-0.573-3.064-0.245-3.715 2.344-0.125 0.496-0.265 0.989-0.618 1.512-0.38-1.311-0.854-2.603-1.119-3.936-0.424-2.128-1.72-3.148-3.778-3.504-6.345-1.098-12.68-2.249-19.021-3.369-0.936-0.165-1.881-0.279-2.824-0.412-1.018-0.145-2.071-0.207-2.665 0.821-0.594 1.029-0.051 1.951 0.632 2.712 2.482 2.771 4.997 5.514 7.511 8.258 7.401 8.08 15.967 14.577 26.072 18.911 6.474 2.776 13.18 4.709 20.268 5.142 5.927 0.362 11.521-0.831 16.862-3.354 0.535-0.253 1.074-0.497 1.681-0.777-0.179 1.743-0.57 3.377-0.477 4.984 1.102 19.016 8.909 34.106 26.003 43.541 10.211 5.635 21.244 7.622 32.829 6.718 0.428-0.034 0.86-0.115 1.271-0.239 1.475-0.445 1.9-1.45 1.086-2.781-0.631-1.031-1.362-2.007-2.119-2.951-2.842-3.545-5.787-7.01-8.541-10.622-1.218-1.599-2.622-1.913-4.415-1.556-0.741 0.148-1.504 0.185-2.523 0.303 0.606-0.744 1.057-1.25 1.455-1.793 1.172-1.595 1.25-2.394 0.111-4-2.453-3.457-4.946-6.887-7.481-10.285-2.843-3.811-1.87-3.526-6.791-2.781-1.794 0.271-3.589 0.538-5.385 0.797-0.109 0.016-0.228-0.046-0.492-0.105 0.518-0.725 0.972-1.397 1.462-2.039 1.023-1.339 1.071-2.651 0.069-4.046-2.422-3.373-4.806-6.774-7.202-10.165-0.171-0.242-0.321-0.499-0.709-1.105 0.703 0.187 1.174 0.181 1.462 0.407 6.29 4.93 13.651 7.226 21.367 8.455 11.502 1.833 22.845 1.184 33.908-2.761 9.225-3.29 16.947-8.789 23.413-16.042 2.522-2.829 4.834-5.883 6.921-9.046 1.933-2.93 1.132-4.18-2.383-4.055-5.792 0.205-11.579 0.552-17.369 0.833-3.283 0.16-6.566 0.354-9.852 0.439-1.535 0.04-2.643 0.545-3.359 1.953-0.9 1.773-1.883 3.504-2.84 5.248-0.118 0.213-0.292 0.395-0.569 0.763-0.359-1.556-0.652-2.934-0.998-4.3-0.511-2.016-0.997-2.47-3.072-2.328-4.093 0.28-8.177 0.689-12.264 1.043-1.413 0.122-2.206 0.826-2.625 2.243-0.518 1.756-1.311 3.431-2.011 5.204-1.115-1.747-2.097-3.319-3.116-4.867-0.611-0.931-1.478-1.438-2.63-1.361-3.103 0.205-6.206 0.422-9.309 0.612-4.227 0.26-8.454 0.499-12.729 0.555 0.251-0.12 0.497-0.25 0.753-0.358 16.963-7.206 29.132-19.153 35.72-36.471 2.699-7.098 2.962-14.517 2.073-22.014-0.796-6.713-2.514-13.16-5.38-19.278-0.671-1.432-1.588-2.788-2.591-4.015-1.362-1.665-2.77-1.544-3.848 0.273-4.174 7.028-8.295 14.087-12.448 21.127-0.565 0.956-0.503 1.829-0.021 2.817 0.956 1.954 1.806 3.96 2.844 6.265" fill="#8f5e3b"/>
   </g>
   <g transform="translate(394.88 374.9)">
    <path d="m0 0c4.271 1.792 6.21 4.86 6.044 9.393 0.863-0.36 1.591-0.617 2.277-0.955 13.768-6.793 24.147-16.941 30.34-31.085 3.207-7.323 4.073-15.023 3.133-22.986-0.746-6.324-2.273-12.41-4.77-18.247-0.698-1.632-1.709-3.13-2.687-4.891-0.386 0.521-0.553 0.708-0.678 0.919-3.862 6.557-7.713 13.121-11.592 19.668-0.425 0.718-0.391 1.297-0.05 2.045 1.004 2.201 1.961 4.427 2.817 6.688 0.231 0.61 0.322 1.672-0.024 2.003-0.44 0.422-1.425 0.509-2.112 0.385-1.31-0.235-2.588-0.688-3.856-1.117-0.851-0.287-1.366-0.048-1.804 0.719-2.55 4.468-5.145 8.911-7.669 13.394-0.198 0.351-0.079 0.983 0.081 1.415 0.884 2.389 1.88 4.738 2.709 7.145 0.211 0.611 0.218 1.672-0.152 2.007-0.449 0.409-1.436 0.46-2.121 0.323-1.133-0.228-2.196-0.788-3.321-1.082-0.316-0.082-0.984 0.181-1.092 0.448-1.851 4.561-3.639 9.149-5.473 13.811" fill="#7fe5b9"/>
   </g>
   <g transform="translate(402.88 389.42)">
    <path d="m0 0c4.037 4.28 3.403 9.995-1.146 13.635 2.719 2.081 5.69 3.629 8.861 4.774 8.961 3.235 18.213 4.352 27.692 3.594 9.095-0.728 17.701-3.141 25.517-7.933 7.551-4.63 13.752-10.725 18.772-18.019 0.436-0.632 0.783-1.324 1.251-2.124-0.426-0.063-0.702-0.15-0.972-0.135-5.353 0.29-10.704 0.61-16.059 0.885-3.238 0.166-6.48 0.324-9.723 0.371-1.596 0.023-2.603 0.579-3.326 2.06-1.041 2.131-2.244 4.193-3.529 6.187-0.376 0.583-1.358 1.244-1.896 1.123-0.552-0.124-1.105-1.101-1.301-1.804-0.475-1.701-0.747-3.46-1.089-5.198-0.119-0.607-0.305-1.038-1.081-0.969-3.657 0.324-7.316 0.617-10.976 0.903-0.965 0.076-1.479 0.475-1.815 1.468-0.607 1.794-1.376 3.548-2.225 5.244-0.955 1.908-2.659 1.919-3.766 0.088-0.892-1.477-1.729-2.988-2.588-4.486-0.432-0.752-1.055-1.076-1.936-0.997-3.399 0.302-6.798 0.608-10.2 0.855-2.753 0.199-5.512 0.314-8.465 0.478" fill="#7fe5b9"/>
   </g>
   <g transform="translate(438.62 455.08)">
    <path d="m0 0c-0.542-0.739-0.966-1.37-1.442-1.959-2.934-3.637-5.89-7.256-8.812-10.903-0.511-0.638-0.989-0.888-1.865-0.729-1.653 0.299-3.342 0.457-5.023 0.534-0.57 0.027-1.548-0.246-1.654-0.591-0.176-0.578 0.015-1.455 0.382-1.972 0.694-0.977 1.612-1.798 2.458-2.665 0.639-0.655 0.723-1.263 0.141-2.046-2.865-3.853-5.665-7.754-8.569-11.578-0.282-0.371-1.137-0.509-1.687-0.44-3.129 0.393-6.245 0.887-9.368 1.335-0.815 0.117-1.719 0.313-2.174-0.634-0.441-0.918 0.235-1.504 0.781-2.145 0.869-1.019 1.729-2.06 2.443-3.186 0.245-0.388 0.259-1.212 6e-3 -1.58-2.722-3.953-5.516-7.858-8.305-11.766-0.165-0.232-0.423-0.479-0.683-0.548-3.071-0.821-4.98-2.818-5.816-5.536-1.93 0.334-3.769 0.61-5.583 1.005-0.317 0.069-0.643 0.598-0.765 0.979-1.553 4.838-1.27 9.688-0.258 14.603 2.348 11.397 7.499 21.176 16.564 28.612 6.611 5.42 14.325 8.618 22.663 10.388 5.123 1.088 10.299 1.162 15.496 1.034 0.286-7e-3 0.57-0.11 1.07-0.212" fill="#7fe5b9"/>
   </g>
   <g transform="translate(309.86 373.09)">
    <path d="m0 0c2.053 2.209 4.128 4.399 6.155 6.632 6.723 7.403 14.335 13.646 23.378 18.04 6.825 3.316 13.976 5.582 21.543 6.289 6.606 0.617 12.79-0.971 18.573-4.169 0.37-0.203 0.684-0.503 1.159-0.86-3.812-2.007-5.986-4.817-5.002-9.313-3.297-0.731-6.534-1.475-9.787-2.134-0.333-0.067-0.922 0.272-1.125 0.592-0.482 0.76-0.701 1.697-1.221 2.422-0.442 0.613-1.196 1.47-1.739 1.42-0.661-0.06-1.472-0.844-1.811-1.519-0.672-1.341-1.177-2.795-1.545-4.254-0.433-1.718-1.359-2.491-3.142-2.842-4.789-0.943-9.528-2.137-14.289-3.222-0.414-0.095-0.841-0.132-1.306-0.202-0.434 1.336-0.799 2.615-1.267 3.856-0.321 0.852-0.795 1.906-1.855 1.629-0.673-0.176-1.407-0.979-1.676-1.672-0.702-1.806-1.206-3.694-1.705-5.572-0.255-0.96-0.771-1.455-1.739-1.629-6.037-1.082-12.068-2.196-18.104-3.284-1.1-0.199-2.213-0.328-3.32-0.489-0.059 0.094-0.117 0.187-0.175 0.281" fill="#7fe5b9"/>
   </g>
   <g transform="translate(362.82 333.25)">
    <path d="m0 0c-0.313-2.829-0.62-5.56-0.918-8.292-0.065-0.601-0.2-1.217-0.126-1.804 0.169-1.336-0.514-1.831-1.688-2.082-4.567-0.974-8.925-0.287-13.128 1.603-0.314 0.141-0.676 0.717-0.63 1.035 0.625 4.391 1.317 8.772 2.054 13.55 4.503-3.312 9.295-4.022 14.436-4.01" fill="#f9e595"/>
   </g>
   <g transform="translate(366.1 347.99)">
    <path d="m0 0c-0.717-3.071-1.412-6.048-2.104-9.025-0.117-0.505-0.237-1.011-0.323-1.522-0.32-1.919-0.066-1.84-2.313-1.843-3.786-6e-3 -7.388 0.673-10.615 2.821-1.044 0.695-1.444 1.433-0.944 2.697 1.379 3.49 2.664 7.018 4.048 10.689 3.66-3.154 7.746-4.114 12.251-3.817" fill="#f9e595"/>
   </g>
   <g transform="translate(361.42 365.41)">
    <path d="m0 0c2.81-2.776 6.112-3.331 9.469-3.562-1.281-3.682-2.521-7.27-3.789-10.847-0.083-0.235-0.348-0.492-0.584-0.572-2.939-0.998-8.932 0.67-10.774 3.008-0.229 0.292-0.484 0.858-0.355 1.096 1.947 3.597 3.956 7.16 6.033 10.877" fill="#f9e595"/>
   </g>
   <g transform="translate(372 364.06)">
    <path d="m0 0c-3.267 0.218-6.556 0.376-9.152 3.232 2.454 3.075 4.888 6.127 7.419 9.299 1.971-1.844 4.141-2.904 6.724-3.123-1.694-3.192-3.344-6.3-4.991-9.408" fill="#f9e595"/>
   </g>
   <g transform="translate(371.72 378.44)">
    <path d="m0 0c2.61 2.327 5.103 4.577 7.642 6.773 0.291 0.252 0.845 0.305 1.269 0.28 1.279-0.074 2.555-0.231 3.985-0.37-0.275-1.395 0.023-2.966-1.453-4.249-1.45-1.262-2.547-2.923-3.872-4.34-0.352-0.377-0.961-0.682-1.472-0.716-2.286-0.153-4.194 0.725-6.099 2.622" fill="#f9e595"/>
   </g>
   <g transform="translate(131.24 96.414)">
    <path d="m0 0c0.456 2.329 0.748 4.518 1.365 6.61 0.223 0.755 1.403 1.177 1.842 1.928 0.845 1.447 2.116 1.79 3.596 1.789 5.75-3e-3 11.5 4e-3 17.25-0.046 6.274-0.052 12.548-0.153 18.822-0.258 1.641-0.027 3.281-0.149 4.919-0.228-0.37-1.647-0.819-3.212-1.062-4.809-0.669-4.394 1.661-7.753 5.792-8.304 1.034-0.138 2.122 0.129 3.184 0.21 0.085-4.217-1.916-7.074-6.096-8.038-2.594-0.6-5.292-0.875-7.958-1.016-7.474-0.396-14.954-0.703-22.411 0.388-0.908 0.132-1.474 0.428-1.939 1.214-1.766 2.986-4.37 4.801-7.859 5.039-2.827 0.193-5.054-1.315-7.061-3.086-1.359-1.201-2.545-2.597-3.884-3.823-0.391-0.359-1.042-0.619-1.572-0.614-7.052 0.061-14.103 0.228-21.156 0.258-4.629 0.02-9.26-0.116-13.889-0.233-0.9-0.023-1.256 0.277-1.511 1.146-1.665 5.684-5.076 7.196-10.506 4.748-2.613-1.178-4.769-2.95-6.699-5.03-0.294-0.318-0.628-0.601-0.904-0.933-1.388-1.674-3.091-2.412-5.331-2.343-5.744 0.179-11.494 0.182-17.164 0.254-0.111 0.254-0.175 0.33-0.17 0.401 0.252 3.553-0.862 4.801-4.461 4.925-1.331 0.045-2.665 7e-3 -4.177 7e-3 0.354 1.644 0.598 2.996 0.968 4.314 0.075 0.264 0.622 0.545 0.966 0.563 3.411 0.187 6.825 0.359 10.24 0.46 6.097 0.181 12.197 0.279 18.295 0.469 7.87 0.244 15.739 0.529 23.607 0.838 0.926 0.036 1.436-0.222 1.954-1.033 1.813-2.84 4.775-3.922 7.847-4.609 4.119-0.921 8.321-0.997 12.524-0.75 1.596 0.093 3.188 0.261 4.779 0.418 3.552 0.351 5.984 2.134 6.956 5.635 0.268 0.964 0.789 1.268 1.715 1.368 13.744 1.483 27.549 1.526 41.344 1.817 0.562 0.012 1.191-0.125 1.668 0.083 0.458 0.2 0.759 0.759 1.129 1.161-0.384 0.331-0.734 0.886-1.157 0.948-0.886 0.129-1.809-7e-3 -2.717-0.026-8.435-0.185-16.874-0.269-25.305-0.589-4.877-0.186-9.74-0.752-14.609-1.147-0.296-0.023-0.592-0.039-1.164-0.076" fill="#f7c0d4"/>
   </g>
   <g transform="translate(44.159 93.801)">
    <path d="m0 0c0.859 2.813 2.375 4.842 4.721 6.328 4.701 2.981 9.921 4.339 15.323 5.319 6.823 1.24 13.695 1.161 20.56 0.927 2.044-0.069 4.108-0.894 6.07-1.625 1.73-0.644 3.339-1.623 4.98-2.495 0.3-0.159 0.688-0.5 0.709-0.782 0.149-1.974 0.212-3.953 0.308-6.067-17.56-0.535-35.049-1.068-52.671-1.605" fill="#f7c0d4"/>
   </g>
   <g transform="translate(120.98 95.649)">
    <path d="m0 0c-0.497-0.067-1.22-0.155-1.939-0.268-0.837-0.13-1.538-0.463-1.451-1.463 0.085-0.979 0.808-1.333 1.656-1.205 1.293 0.196 2.578 0.488 3.832 0.857 0.267 0.079 0.586 0.714 0.519 1.012-0.084 0.373-0.484 0.808-0.851 0.952-0.454 0.177-1.016 0.082-1.766 0.115m-22.197 5.069c10.533-3.398 20.78-4.527 31.224 0.618-0.747-2.993-1.355-5.809-2.169-8.566-0.684-2.32-2.674-3.058-4.834-3.301-5.258-0.588-10.532-0.779-15.761 0.197-1.592 0.296-3.154 0.917-4.636 1.594-1.978 0.904-3.151 2.54-3.418 4.724-0.188 1.535-0.268 3.083-0.406 4.734" fill="#f7c0d4"/>
   </g>
   <g transform="translate(183.28 106.25)">
    <path d="m0 0c-0.077-5.469 0.43-7.489 2.635-10.51-2.286-1.145-5.144 0.3-5.593 2.946-0.355 2.082-0.14 4.173 0.879 6.057 0.39 0.719 1.148 1.238 1.739 1.85 0.113-0.114 0.226-0.229 0.34-0.343" fill="#fff"/>
   </g>
   <g transform="translate(43.564 84.369)">
    <path d="m0 0c0.947 0 1.896 0.04 2.84-0.016 0.547-0.032 1.156-0.104 1.602-0.378 0.332-0.202 0.608-0.759 0.606-1.156-2e-3 -0.305-0.428-0.804-0.748-0.882-2.92-0.713-5.874-0.983-8.797-0.078-0.414 0.128-0.87 0.825-0.892 1.279-0.015 0.334 0.614 0.954 1.013 1.004 1.444 0.186 2.913 0.185 4.373 0.254 1e-3 -8e-3 2e-3 -0.018 3e-3 -0.027" fill="#fff"/>
   </g>
   <g transform="translate(138.69 109.17)">
    <path d="m0 0c-0.962-0.133-1.804-0.249-2.846-0.394-0.401 2.748-0.804 5.411-1.158 8.081-0.036 0.269 0.215 0.816 0.354 0.823 0.33 0.016 0.731-0.144 0.993-0.364 0.245-0.206 0.408-0.562 0.506-0.883 0.721-2.382 1.417-4.773 2.151-7.263" fill="#fff"/>
   </g>
   <g transform="translate(187.3 97.409)">
    <path d="m0 0c-0.403 0.947-0.94 1.862-1.177 2.849-0.339 1.414-0.527 2.876-0.629 4.328-0.03 0.43 0.41 1.238 0.702 1.27 0.485 0.055 1.224-0.241 1.496-0.636 0.418-0.607 0.755-1.43 0.73-2.148-0.063-1.834-0.346-3.66-0.541-5.489-0.194-0.058-0.388-0.115-0.581-0.174" fill="#fff"/>
   </g>
   <g transform="translate(120.98 95.649)">
    <path d="m0 0c0.75-0.033 1.312 0.062 1.766-0.115 0.367-0.144 0.767-0.579 0.851-0.952 0.067-0.298-0.252-0.933-0.519-1.012-1.254-0.369-2.539-0.661-3.832-0.857-0.848-0.128-1.571 0.226-1.656 1.205-0.087 1 0.614 1.333 1.451 1.463 0.719 0.113 1.442 0.201 1.939 0.268" fill="#8f5e3b"/>
   </g>
  </g>
 </g>
 <path transform="matrix(.35278 0 0 -.35278 98.56 122.08)" d="m0 0c-5.116-1.218-9.695-0.954-14.313 2.033-0.052-1.977-0.305-3.652-0.095-5.267 0.44-3.404 3.66-5.396 6.905-4.29 3.577 1.219 5.663 4.031 7.503 7.524m34.29 12.358c-1.287-1.175-2.45-2.083-3.427-3.16-2.561-2.82-4.061-6.126-3.938-9.993 0.105-3.298 2.502-5.615 5.917-5.92 2.969-0.264 4.768 1.244 5.588 4.707 0.119 0.503 0.228 1.021 0.239 1.533 0.103 4.703-1.986 8.649-4.379 12.833m-37.413-7.226c1.276 0.406 2.715 0.858 4.15 1.324 0.769 0.249 1.157 0.728 1.239 1.598 0.236 2.483 0.193 4.93-0.631 7.308-0.975 2.814-2.405 5.211-5.665 5.799-4.541 0.82-8.452-2.291-9.214-7.321-0.705-4.655 2.13-8.311 6.812-8.718 1.027-0.09 2.069 1e-3 3.309 0.01m-39.969 10.937c4.274 1.182 7.942 3.047 10.825 6.247 2.114 2.347 3.712 4.99 4.139 8.198 0.398 2.985-0.979 5.068-3.911 5.775-2.897 0.698-5.526 0.033-7.272-2.418-1.202-1.689-2.155-3.65-2.788-5.628-1.249-3.896-1.259-7.951-0.993-12.174m-4.197-19.725c-0.558-0.077-0.937-0.108-1.308-0.184-4.303-0.885-8.464-2.183-12.194-4.572-4.666-2.988-8.262-6.818-9.421-12.471-0.955-4.651 1.895-10.106 6.257-11.98 3.427-1.472 6.868-0.494 9.757 2.985 6.303 7.588 7.522 16.551 6.909 26.222m86.859 18.797c1.19-2.618 2.395-5.007 3.377-7.485 1.654-4.176 2.174-8.468 0.549-12.789-1.392-3.697-3.775-6.579-7.84-7.194-8.765-1.325-15.131 5.19-14.494 12.889 0.53 6.404 3.539 11.478 8.568 15.405 0.375 0.293 0.747 0.589 1.118 0.886 0.032 0.026 0.051 0.069 0.208 0.294-2.466 3.01-4.972 6.069-7.635 9.321-0.267-0.616-0.412-0.991-0.588-1.352-2.037-4.195-3.903-8.487-6.175-12.551-1.962-3.512-4.973-6.195-8.271-8.495-0.784-0.548-1.257-1.156-1.535-2.106-1.493-5.104-4.048-9.546-8.386-12.797-4.878-3.655-10.836-3.636-15.044 0.088-2.35 2.08-3.531 4.759-3.734 7.876-0.039 0.602-0.045 1.205-0.072 1.959-0.405-0.056-0.727-0.11-1.051-0.144-5.42-0.562-10.832-1.237-16.263-1.643-3.845-0.287-3.829-0.123-3.716-3.993 0.177-6.025-0.574-11.912-2.843-17.541-1.383-3.434-3.171-6.628-5.61-9.443-7.743-8.938-18.685-6.568-24.056 2.686-3.963 6.83-2.521 13.38 1.635 19.503 4.296 6.327 10.588 9.934 17.781 12.077 2.186 0.652 4.434 1.093 6.845 1.677-0.302 2.19-0.611 4.437-0.931 6.757-1.801 1e-3 -3.701-0.107-5.586 0.02-7.315 0.496-13.951 2.875-19.689 7.5-2.179 1.756-3.896 3.934-4.846 6.622-0.652 1.846 0.017 3.556 1.568 4.131 1.621 0.601 2.846-0.281 3.858-2.109 0.902-1.628 2-3.329 3.44-4.446 5.797-4.496 12.463-6.406 19.797-5.921 0.258 0.017 0.515 0.057 0.771 0.1 0.079 0.014 0.151 0.072 0.308 0.15 0.031 2.453-0.029 4.952 0.115 7.439 0.281 4.85 1.283 9.514 4.016 13.655 3.367 5.102 9.09 7.285 14.661 5.595 5.847-1.774 8.953-6.941 7.617-12.913-1.56-6.971-5.736-12.046-11.905-15.434-2.288-1.256-4.86-1.996-7.303-2.972-0.277-0.111-0.553-0.227-0.991-0.407 0.323-2.344 0.646-4.691 0.997-7.232 1.485 0.08 3.112 0.085 4.719 0.267 5.67 0.644 11.334 1.346 16.999 2.039 0.422 0.052 0.864 0.152 1.238 0.343 0.793 0.405 1.159 0.85 0.725 1.925-3.139 7.777 1.428 17.134 9.355 19.335 5.817 1.616 12.206-1.326 14.753-7.039 0.955-2.142 1.369-4.527 2.008-6.806 0.113-0.4 0.123-0.829 0.237-1.657 1.201 1.437 2.256 2.558 3.15 3.794 2.637 3.645 4.299 7.789 5.945 11.933 0.623 1.568 1.178 3.163 1.804 4.729 1.219 3.053 4.063 3.594 6.192 1.115 3.296-3.839 6.576-7.695 9.731-11.649 0.853-1.068 1.471-1.117 2.656-0.675 6.961 2.604 14.141 3.992 21.61 3.434 1.022-0.076 2.073-0.274 3.027-0.636 1.5-0.569 2.193-2.086 1.769-3.466-0.439-1.423-1.803-2.259-3.383-1.935-5.148 1.054-10.167 0.069-15.165-0.977-2.052-0.429-4.041-1.153-6.035-1.737" fill="#f7c0d4"/>
 <g fill="#f37d57">
  <path transform="matrix(.35278 0 0 -.35278 59.843 148.33)" d="m0 0c2.063 0.509 3.929 0.741 5.611 1.426 6.2 2.526 12.344 5.189 18.485 7.856 0.297 0.129 0.563 0.81 0.512 1.188-1.132 8.353-2.199 16.718-3.52 25.043-0.913 5.754-2.089 11.472-3.349 17.162-0.568 2.569-1.645 5.027-3.523 6.995-1.052 1.104-1.526 1.071-2.28-0.212-0.566-0.962-1.061-1.983-1.455-3.028-2.807-7.45-4.165-15.247-5.386-23.065-1.434-9.18-2.754-18.38-4.135-27.569-0.273-1.82-0.6-3.632-0.96-5.796m25.51 3.617c-2.433-1.141-4.729-2.237-7.04-3.301-5.311-2.442-10.686-4.705-16.496-5.711-0.042-6e-3 -0.083-0.023-0.126-0.03-0.978-0.156-2.33 0.023-2.843-0.55-0.662-0.74-0.681-2.074-0.93-3.162-2.562-11.163-5.995-22.023-11.259-32.238-2.827-5.486-6.066-10.696-10.727-14.863-5.452-4.874-11.689-7.57-19.123-6.408-5.964 0.933-10.834 4.001-14.824 8.434-5.198 5.774-7.786 12.706-8.505 20.353-0.793 8.445 0.522 16.582 4.19 24.246 2.59 5.41 6.238 10.012 11.56 12.991 5.951 3.331 12.21 4.098 18.557 1.241 11.564-5.204 12.679-18.484 4.799-26.632-2.25-2.326-4.996-3.988-7.934-5.315-1.8-0.813-3.413-0.336-4.144 1.135-0.759 1.527-0.059 3.056 1.702 4.056 1.8 1.024 3.682 1.984 5.265 3.289 3.582 2.955 5.166 6.815 4.068 11.436-0.999 4.198-5.41 7.534-9.963 7.875-7.264 0.544-12.389-2.975-16.395-8.602-3.53-4.959-5.149-10.617-5.868-16.575-0.904-7.495 0.069-14.673 3.814-21.337 2.284-4.066 5.473-7.24 9.667-9.317 6.465-3.202 12.422-2.002 17.945 2.27 3.547 2.744 6.178 6.281 8.441 10.103 5.962 10.068 9.648 21.017 12.452 32.305 0.405 1.629 0.759 3.272 1.166 5.036-1.243 0.23-2.417 0.309-3.493 0.675-2.032 0.69-4.129 1.338-5.962 2.409-1.097 0.64-1.92 1.956-2.547 3.137-0.631 1.187-0.019 2.59 1.057 3.279 1.144 0.731 2.702 0.663 3.546-0.446 2.169-2.851 5.37-2.737 8.554-3.332 0.46 2.599 0.941 5.044 1.322 7.506 1.751 11.321 3.386 22.659 5.244 33.962 0.988 6.014 2.32 11.984 4.732 17.62 0.771 1.802 1.773 3.599 3.044 5.075 2.168 2.52 5.301 2.746 8.095 0.932 2.42-1.571 3.885-3.907 5.064-6.445 2.154-4.636 3.198-9.591 3.954-14.597 1.555-10.302 3.001-20.62 4.495-30.932 0.068-0.467 0.175-0.93 0.262-1.384 2.402 0.482 4.737 1.114 7.115 1.398 8.229 0.985 14.916-3.255 17.688-11.075 0.169-0.477 0.344-0.951 0.757-1.419 0.634 2.651 1.207 5.318 1.913 7.949 2.908 10.841 7.03 21.174 13.305 30.532 2.718 4.055 5.979 7.62 10.699 9.521 7.216 2.906 14.477-0.419 16.799-7.847 1.781-5.701 1.883-11.599 1.601-17.49-0.536-11.192-1.232-22.378-1.783-33.569-0.191-3.889-0.14-7.79-0.216-11.685-0.017-0.863-0.021-1.74-0.178-2.584-0.243-1.311-1.394-2.212-2.673-2.239-1.257-0.026-2.428 0.86-2.759 2.139-0.118 0.456-0.198 0.941-0.183 1.409 0.334 10.034 0.525 20.076 1.082 30.098 0.444 7.993 1.341 15.97 0.868 23.98-0.175 2.987-0.663 6.043-1.59 8.877-1.197 3.663-4.333 4.898-8.06 3.816-2.289-0.665-4.069-2.056-5.677-3.731-3.587-3.734-5.998-8.225-8.286-12.805-5.011-10.03-7.949-20.717-10.056-31.664-0.678-3.521-1.272-7.06-1.864-10.597-0.418-2.5-2.541-3.421-4.736-2.14-1.633 0.953-2.067 2.347-2.238 4.094-0.355 3.65-0.813 7.293-1.376 10.917-0.196 1.257-0.743 2.485-1.271 3.662-2.187 4.871-6.612 7.076-12.17 6.027-1.981-0.373-3.922-0.96-6.029-1.486 0.733-4.441 1.381-8.705 2.149-12.948 1.956-10.806 4.075-21.576 7.211-32.121 5.837-19.631 17.592-34.48 35.675-44.196 7.274-3.908 15.083-5.488 23.314-4.71 3.996 0.377 7.646 1.755 10.827 4.281 5.3 4.211 7.146 10.642 4.474 16.978-2.454 5.818-6.244 10.688-11.765 13.957-3.77 2.231-7.895 3.378-12.301 2.795-6.257-0.829-10.012-4.655-11.984-10.46-0.223-0.655-0.431-1.317-0.708-1.948-0.692-1.576-2.115-2.266-3.558-1.765-1.47 0.511-2.206 1.886-1.783 3.552 3.391 13.338 14.446 18.46 25.591 15.832 8.737-2.06 14.746-7.63 19.377-14.99 1.932-3.068 3.464-6.315 3.9-9.946 0.959-7.998-2.106-14.309-8.437-19.058-5.906-4.429-12.734-5.517-19.925-5.128-11.901 0.642-21.908 5.802-31.137 12.903-14.24 10.955-23.021 25.449-27.761 42.589-3.693 13.352-6.217 26.945-8.359 40.617-0.066 0.425-0.168 0.844-0.298 1.49"/>
  <path transform="matrix(.35278 0 0 -.35278 155.34 120.61)" d="m0 0c0.771 3.85 1.668 7.401 2.128 11.007 0.249 1.951-0.167 4.008-0.463 5.99-0.083 0.558-0.721 1.272-1.253 1.438-0.327 0.103-1.058-0.614-1.4-1.108-3.106-4.485-2.741-12.646 0.988-17.327m-35.285-22.277c3.213 0.737 5.744 2.15 7.848 4.298 1.701 1.737 2.846 3.809 3.3 6.205 0.23 1.213 0.23 2.48-0.92 3.306-1.176 0.846-2.382 0.498-3.536-0.14-0.263-0.146-0.528-0.307-0.755-0.503-3.953-3.426-5.307-8.009-5.937-13.166m-56.174 1.049c-0.03 0.288-0.059 0.676-0.113 1.061-0.501 3.553-3.713 4.967-6.591 2.864-0.76-0.554-1.463-1.227-2.066-1.951-2.502-3.005-3.714-6.596-4.545-10.344-0.405-1.82-0.11-2.201 1.766-2.292 0.473-0.023 0.97-0.053 1.421 0.061 3.088 0.78 5.819 2.206 7.906 4.667 1.415 1.669 2.114 3.646 2.222 5.934m106.7-11.811c-1.671-1.246-3.268-2.277-4.679-3.521-3.518-3.1-6.199-6.761-6.943-11.538-0.528-3.394 1.788-6.069 5.225-6.132 3.853-0.073 7.26 2.8 8.079 6.927 0.956 4.823-0.161 9.419-1.682 14.264m-86.658-14.105c0.334 0.5 0.425 0.598 0.473 0.713 4.873 11.727 8.942 23.698 10.682 36.337 0.628 4.562 0.703 9.155-0.627 13.643-0.66 2.229-1.652 4.277-3.689 5.63-1.056 0.702-2.065 0.683-2.912-0.261-0.776-0.863-1.553-1.761-2.133-2.758-3.312-5.689-4.678-11.974-5.292-18.427-0.791-8.318-0.233-16.597 1.29-24.803 0.604-3.258 1.413-6.479 2.208-10.074m-34.748 9.818c-0.2-1.559-0.442-3.174-0.61-4.795-0.653-6.289-0.777-12.548 1.668-18.545 2.107-5.168 5.811-8.538 11.415-9.512 2.868-0.498 5.579 0.293 7.871 1.935 2.088 1.495 4.134 3.196 5.735 5.182 1.938 2.405 3.417 5.187 5.02 7.85 0.237 0.394 0.236 1.099 0.058 1.546-3.419 8.61-4.996 17.608-5.688 26.791-0.616 8.153-0.4 16.259 1.569 24.246 1.134 4.599 2.677 9.037 5.36 12.998 0.436 0.642 0.916 1.262 1.438 1.838 3.839 4.241 8.776 4.342 12.805 0.267 3.232-3.271 4.554-7.382 5.081-11.808 0.962-8.094-0.505-15.947-2.502-23.729-2.672-10.408-6.268-20.497-10.747-30.264-0.34-0.74-0.249-1.243 0.221-1.876 4.707-6.335 12.667-6.458 17.53-0.239 3.197 4.088 4.811 8.935 6.709 13.675 1.795 4.489 1.615 9.127 1.786 13.78 0.188 5.149 0.501 10.299 2.583 15.129 1.695 3.934 3.977 7.419 7.893 9.484 3.213 1.695 6.457 1.683 9.418-0.531 2.947-2.203 3.743-5.375 3.059-8.821-1.403-7.062-5.902-11.55-12.393-14.22-1.19-0.49-2.462-0.78-3.583-1.128-0.388-2.659-0.991-5.254-1.094-7.869-0.123-3.134 0.787-6.099 2.9-8.524 1.988-2.281 4.719-2.835 7.552-1.62 3.085 1.321 5.271 3.726 7.326 6.261 4.002 4.936 6.563 10.675 8.961 16.472 2.112 5.11 3.959 10.33 5.968 15.483 0.304 0.78 0.247 1.311-0.269 1.988-2.734 3.587-4.801 7.497-5.501 12.021-0.71 4.584-0.085 8.973 2.066 13.093 0.535 1.022 1.234 1.998 2.025 2.838 3.234 3.432 7.883 3.039 10.507-0.892 1.991-2.985 2.379-6.36 2.054-9.838-0.506-5.413-1.972-10.616-3.628-15.765-0.291-0.906-0.159-1.494 0.457-2.192 4.968-5.621 9.582-11.502 13.166-18.133 0.161-0.297 0.85-0.576 1.176-0.477 13.136 3.982 25.476 1.442 37.397-4.523 1.815-0.91 3.568-1.948 5.336-2.952 1.713-0.971 2.304-2.538 1.554-4.013-0.751-1.475-2.409-1.951-4.151-1.086-1.471 0.73-2.889 1.567-4.324 2.367-7.639 4.254-15.82 6.553-24.572 6.318-3.243-0.086-6.467-0.888-9.819-1.382 0.63-2.501 1.236-4.603 1.683-6.738 0.877-4.193 1.134-8.4-0.097-12.585-2.164-7.349-9.742-11.721-16.707-9.639-5.146 1.537-8.389 6.616-7.614 11.959 0.937 6.473 4.444 11.451 9.277 15.584 1.793 1.533 3.813 2.803 5.832 4.268-2.924 5.66-6.844 10.69-11.15 15.777-0.578-1.516-1.049-2.87-1.607-4.188-2.609-6.167-5.094-12.391-7.913-18.461-2.402-5.176-5.725-9.782-10.054-13.577-2.794-2.45-5.93-4.204-9.762-4.322-4.376-0.135-7.746 1.77-10.345 5.192-0.208 0.275-0.409 0.556-0.616 0.832-0.025 0.032-0.071 0.047-0.25 0.163-0.477-1.144-0.942-2.266-1.41-3.386-1.717-4.096-3.787-7.979-6.915-11.197-6.259-6.441-16.278-6.606-22.757-0.395-0.374 0.358-0.733 0.732-1.237 1.238-0.298-0.481-0.562-0.891-0.811-1.311-2.291-3.859-4.931-7.429-8.504-10.216-3.39-2.644-7.161-4.513-11.515-4.511-7.196 3e-3 -12.654 3.411-16.567 9.308-3.027 4.563-4.2 9.768-4.405 15.143-0.357 9.326 1.015 18.474 3.612 27.409 1.206 4.151 3.326 7.89 6.703 10.763 3.645 3.101 7.734 3.761 11.278 1.835 3.867-2.102 6.042-6.511 5.436-11.063-0.99-7.429-5.7-11.663-12.321-14.177-1.233-0.468-2.593-0.718-3.911-0.805-1.312-0.087-2.645 0.16-4.136 0.272"/>
  <path transform="matrix(.35278 0 0 -.35278 99.846 140.94)" d="m0 0c0-0.691-0.052-1.388 8e-3 -2.074 0.318-3.636 1.411-6.94 4.226-9.458 2.486-2.224 4.276-2.295 6.421 0.226 1.688 1.985 3.195 4.214 4.337 6.551 2.982 6.101 4.345 12.725 5.707 19.326 0.083 0.405-0.031 1.008-0.294 1.301-2.267 2.523-5.075 3.855-8.517 3.461-3.366-0.386-5.836-2.247-7.657-5.011-2.857-4.34-4.23-9.135-4.231-14.322m33.985-44.841c0 1.731-0.018 3.461 8e-3 5.191 0.011 0.824-0.333 1.166-1.159 1.163-2.033-5e-3 -4.07 0.122-6.099 0.036-4.734-0.199-9.393-0.858-13.744-2.88-3.63-1.688-6.645-4.101-8.302-7.852-2.717-6.154 0.367-14.749 6.516-18.38 5.403-3.191 10.86-2.793 15.639 1.203 2.335 1.953 3.984 4.42 5.103 7.247 1.817 4.592 2.193 9.401 2.038 14.272m-7.097 53.321c-1.477-0.46-1.945-1.393-2.268-2.684-1.517-6.049-3.242-12.059-6.785-17.291-1.317-1.945-2.929-3.778-4.716-5.299-3.276-2.785-7.087-2.88-10.69-0.547-4.487 2.906-6.993 7.164-7.82 12.341-1.326 8.306 0.429 16.011 5.167 22.962 4.811 7.058 14.057 9.684 21.786 4.516 0.173-0.116 0.37-0.197 0.699-0.371 0.446 2.344 0.861 4.578 1.295 6.809 0.414 2.124 1.409 3.169 2.985 3.171 1.64 1e-3 3.017-1.387 3.299-3.424 0.427-3.084 0.731-6.186 1.218-9.259 1.299-8.197 2.713-16.375 3.998-24.573 1.42-9.052 2.747-18.118 4.115-27.179 0.033-0.211 0.083-0.419 0.145-0.73 2.491-0.203 4.978-0.49 7.474-0.594 7.691-0.319 15.388-0.867 23.077-0.77 9.867 0.124 19.242 2.586 27.888 7.495 3.721 2.112 6.643 5.092 9.156 8.51 0.306 0.417 0.606 0.849 0.966 1.217 1.142 1.169 2.699 1.32 3.864 0.408 1.189-0.929 1.572-2.532 0.589-3.821-1.779-2.333-3.581-4.69-5.666-6.74-4.637-4.558-10.455-7.135-16.502-9.244-9.334-3.255-18.995-4.098-28.782-3.678-6.739 0.289-13.465 0.869-20.198 1.313-0.424 0.028-0.851 3e-3 -1.343 3e-3 0-1.167-0.035-2.277 6e-3 -3.383 0.215-5.783-0.061-11.521-1.907-17.057-2.364-7.096-6.707-12.469-13.92-15.074-8.801-3.179-18.797 1.781-23.001 9.333-2.762 4.96-3.985 10.275-2.446 15.875 1.681 6.116 5.91 10.144 11.441 12.89 5.335 2.648 11.087 3.531 16.975 3.685 2.067 0.055 4.138 9e-3 6.426 9e-3 -1.662 13.869-4.217 27.476-6.525 41.181"/>
 </g>
</svg>
